<?xml version="1.0" encoding="utf-8"?>
<!-- Generator: Adobe Illustrator 16.0.4, SVG Export Plug-In . SVG Version: 6.00 Build 0)  -->
<!DOCTYPE svg PUBLIC "-//W3C//DTD SVG 1.1//EN" "http://www.w3.org/Graphics/SVG/1.1/DTD/svg11.dtd">
<svg version="1.1" id="Layer_1" xmlns="http://www.w3.org/2000/svg" xmlns:xlink="http://www.w3.org/1999/xlink" x="0px" y="0px"
	 width="245px" height="70px" viewBox="0 0 245 70" enable-background="new 0 0 245 70" xml:space="preserve">
<g>
	<g>
		<rect x="-1.765" width="3.753" height="70"/>
	</g>
	<g>
		<rect x="3.861" width="1.725" height="70"/>
	</g>
	<g>
		<rect x="9.21" width="5.783" height="70"/>
	</g>
	<g>
		<rect x="18.341" width="7.812" height="70"/>
	</g>
	<g>
		<rect x="27.84" width="1.725" height="70"/>
	</g>
	<g>
		<rect x="31.345" width="5.783" height="70"/>
	</g>
	<g>
		<path d="M55.482,70h-3.754V0h3.754V70z M49.948,70h-3.754V0h3.754V70z M42.57,70h-3.753V0h3.753V70z"/>
	</g>
	<g>
		<path d="M66.457,70h-1.725V0h1.725V70z M60.923,70h-1.725V0h1.725V70z"/>
	</g>
	<g>
		<rect x="72.019" width="3.753" height="70"/>
	</g>
	<g>
		<rect x="79.305" width="5.782" height="70"/>
	</g>
	<g>
		<rect x="86.591" width="7.812" height="70"/>
	</g>
	<g>
		<path d="M101.504,70h-1.725V0h1.725V70z M97.815,70H96.09V0h1.725V70z"/>
	</g>
	<g>
		<rect x="103.376" width="3.753" height="70"/>
	</g>
	<g>
		<rect x="110.663" width="5.782" height="70"/>
	</g>
	<g>
		<path d="M129.172,70h-1.724V0h1.724V70z M121.794,70h-1.725V0h1.725V70z"/>
	</g>
	<g>
		<rect x="131.045" width="3.754" height="70"/>
	</g>
	<g>
		<rect x="140.175" width="5.783" height="70"/>
	</g>
	<g>
		<rect x="151.428" width="1.725" height="70"/>
	</g>
	<g>
		<path d="M164.312,70h-3.754V0h3.754V70z M158.777,70h-3.754V0h3.754V70z"/>
	</g>
	<g>
		<path d="M186.354,70h-1.725V0h1.725V70z M182.665,70h-1.724V0h1.724V70z M177.131,70h-1.725V0h1.725V70z M173.441,70h-1.724V0
			h1.724V70z"/>
	</g>
	<g>
		<rect x="191.732" width="7.811" height="70"/>
	</g>
	<g>
		<path d="M208.489,70h-1.725V0h1.725V70z M202.954,70h-1.724V0h1.724V70z"/>
	</g>
	<g>
		<path d="M225.183,70h-3.754V0h3.754V70z M215.961,70h-3.753V0h3.753V70z"/>
	</g>
	<g>
		<rect x="230.559" width="5.783" height="70"/>
	</g>
	<g>
		<rect x="238.124" width="1.724" height="70"/>
	</g>
	<g>
		<rect x="241.719" width="3.754" height="70"/>
	</g>
</g>
</svg>
