<?xml version="1.0" encoding="utf-8"?>
<!-- Generator: Adobe Illustrator 16.0.4, SVG Export Plug-In . SVG Version: 6.00 Build 0)  -->
<!DOCTYPE svg PUBLIC "-//W3C//DTD SVG 1.1//EN" "http://www.w3.org/Graphics/SVG/1.1/DTD/svg11.dtd">
<svg version="1.1" id="Layer_1" xmlns="http://www.w3.org/2000/svg" xmlns:xlink="http://www.w3.org/1999/xlink" x="0px" y="0px"
	 width="197.334px" height="179.667px" viewBox="0 0 197.334 179.667" enable-background="new 0 0 197.334 179.667"
	 xml:space="preserve">
<g>
	<path fill-rule="evenodd" clip-rule="evenodd" fill="#FFFFFF" d="M54.672,74.753c0,7.231-3.227,9.867-8.683,9.867h-7.822v-34.92
		h7.868c6.046,0,7.638,3.637,7.638,9.593c0,4.276-1.545,6.595-4.319,6.731C52.353,66.025,54.672,69.071,54.672,74.753L54.672,74.753
		z M44.215,68.208v12.324h1.592c1.864,0,2.364-1.141,2.364-6.46c0-3.864-0.455-5.864-2.455-5.864H44.215V53.793v10.047h1.546
		c1.636,0,1.955-1.455,1.955-4.455c0-4.093-0.409-5.593-2.409-5.593h-1.092V68.208L44.215,68.208z"/>
	<path fill-rule="evenodd" clip-rule="evenodd" fill="#FFFFFF" d="M89.312,66.705c3.907,1.181,4.363,5.792,4.363,10.021
		c0,3.284,0.112,6.188,0.546,7.894h-6.365c-0.18-1.275-0.455-2.032-0.455-5.177c0-1.365,0-2.755,0-4.484
		c0-2.778-0.941-4.864-2.932-5.39h-0.432v15.051h-6.275v-34.92h9.321c4.365,0,7.32,2.546,7.32,8.867
		C94.403,64.067,92.018,66.431,89.312,66.705L89.312,66.705z M84.037,54.019v10.233h1.909c1.637,0,2.138-1.046,2.138-4.319
		c0-5.095-0.955-5.914-2.866-5.914H84.037L84.037,54.019z"/>
	<path fill-rule="evenodd" clip-rule="evenodd" fill="#FFFFFF" d="M105.09,65.569c0.272,4.682,0.318,6.049,0.318,10.141
		c0,2.683,0,8.911,0,8.911h-5.774v-34.92h5.729c0,0,2.73,10.232,3.318,12.413c0.591,2.227,1.046,4.049,1.323,5.546
		c-0.185-3.409-0.231-7.637-0.231-11.142c0-2.678,0-6.818,0-6.818h5.598v34.92h-5.139c0,0-3.14-10.776-3.777-12.912
		C105.955,70.07,105.545,68.16,105.09,65.569L105.09,65.569z"/>
	<polygon fill-rule="evenodd" clip-rule="evenodd" fill="#FFFFFF" points="127.098,79.391 134.689,79.391 134.689,84.621 
		120.96,84.621 120.96,49.701 133.737,49.701 133.737,54.93 127.098,54.93 127.098,64.388 132.963,64.388 132.963,69.254 
		127.098,69.254 127.098,79.391 	"/>
	<path fill-rule="evenodd" clip-rule="evenodd" fill="#FFFFFF" d="M143.864,76.569c0,3.915,0.821,4.503,2.232,4.503
		c1.091,0,1.938-0.639,1.938-4.503c0-3.463-2.316-5.943-4.931-9.092c-2.363-2.842-5.017-6.74-5.017-10.044
		c0-5.208,2.372-8.277,7.328-8.277c4.864,0,7.411,2.683,7.411,7.82c0,1.228-0.229,2.094-0.455,2.823h-5.19
		c0.092-0.549,0.141-1.414,0.141-2.458c0-3.322-0.363-4.32-1.816-4.32c-1.364,0-1.593,1.318-1.593,3.822
		c0,3.149,2.527,5.65,4.542,8.243c2.969,3.81,5.357,6.842,5.357,10.397c0,5.68-2.396,9.868-7.761,9.868
		c-4.775,0-7.9-2.605-7.9-8.653c0-1.408,0.046-2.563,0.41-3.791l5.589-0.032C143.968,74.24,143.864,75.068,143.864,76.569
		L143.864,76.569z"/>
	<path fill-rule="evenodd" clip-rule="evenodd" fill="#FFFFFF" d="M57.017,84.653l5.088-35.173h6l5.998,35.173h-6.497l-0.635-5.635
		H63.06l-0.637,5.635H57.017L57.017,84.653z M63.456,75.147h3.182c0,0-0.481-4.048-0.756-6.684
		c-0.18-1.636-0.822-6.733-1.003-10.098c-0.091,3.453-0.64,8.506-0.776,10.098C63.875,71.099,63.456,75.147,63.456,75.147
		L63.456,75.147z"/>
</g>
<g>
	<path fill-rule="evenodd" clip-rule="evenodd" fill="#FFFFFF" d="M74.128,107.768c0.248,4.26,0.29,5.505,0.29,9.229
		c0,2.442,0,8.109,0,8.109h-5.255v-31.78h5.213c0,0,2.485,9.313,3.023,11.298c0.538,2.026,0.952,3.686,1.199,5.048
		c-0.166-3.102-0.206-6.951-0.206-10.14c0-2.438,0-6.206,0-6.206h5.088v31.78h-4.673c0,0-2.855-9.806-3.436-11.75
		C74.914,111.864,74.542,110.125,74.128,107.768L74.128,107.768z"/>
	<path fill-rule="evenodd" clip-rule="evenodd" fill="#FFFFFF" d="M102.683,109.259c0,13.696-2.237,16.511-7.448,16.511
		c-4.844,0-7.451-2.111-7.451-16.511c0-13.946,2.025-16.429,7.451-16.429C100.654,92.831,102.683,95.313,102.683,109.259
		L102.683,109.259z M96.806,109.259c0-5.009,0-8.069-0.204-10.345c-0.17-2.318-0.542-2.773-1.367-2.773
		c-0.911,0-1.284,0.455-1.493,2.773c-0.163,2.232-0.122,5.377-0.122,10.345c0,5.794-0.041,8.026,0.122,10.261
		c0.209,2.442,0.538,2.693,1.493,2.693c0.868,0,1.157-0.21,1.367-2.693C96.765,117.244,96.806,115.053,96.806,109.259
		L96.806,109.259z"/>
	<path fill-rule="evenodd" clip-rule="evenodd" fill="#FFFFFF" d="M122,116.129c0,6.578-2.939,8.977-7.904,8.977h-7.12v-31.78h7.158
		c5.507,0,6.955,3.311,6.955,8.729c0,3.895-1.408,6.005-3.931,6.129C119.888,108.184,122,110.956,122,116.129L122,116.129z
		 M112.481,110.168v11.217h1.445c1.699,0,2.153-1.037,2.153-5.879c0-3.517-0.415-5.338-2.236-5.338H112.481V97.05v9.145h1.404
		c1.492,0,1.779-1.323,1.779-4.054c0-3.724-0.373-5.091-2.192-5.091h-0.991V110.168L112.481,110.168z"/>
	<polygon fill-rule="evenodd" clip-rule="evenodd" fill="#FFFFFF" points="131.843,120.348 138.587,120.348 138.587,125.106 
		126.046,125.106 126.046,93.326 131.843,93.326 131.843,120.348 	"/>
	<polygon fill-rule="evenodd" clip-rule="evenodd" fill="#FFFFFF" points="147.258,120.348 154.167,120.348 154.167,125.106 
		141.671,125.106 141.671,93.326 153.296,93.326 153.296,98.084 147.258,98.084 147.258,106.693 152.593,106.693 152.593,111.123 
		147.258,111.123 147.258,120.348 	"/>
	<path fill-rule="evenodd" clip-rule="evenodd" fill="#FFFFFF" d="M62.414,108.511c-2.197,0-3.846,1.483-4.833,3.515
		c-0.991,2.255-2.091,4.837-2.803,6.265c-2.457-4.178-4.303-7.515-5.451-10.501c1.907-1.064,5.213-2.687,7.102-4.405
		c1.888-1.724,2.798-3.337,3.128-5.204c0.606-3.575-1.43-6.706-5.933-6.706c-3.793,0-8.299,2.967-9.179,7.914
		c-0.439,2.527,0.128,5.777,1.048,8.448c-3.407,2.309-6.376,4.851-7.146,8.863c-1.1,6.592,3.022,9.613,7.692,9.613
		c3.188,0,5.622-1.422,7.545-3.621c1.464,1.683,3.335,3.621,5.643,3.621c1.87,0,3.847-1.209,5.386-3.188l-0.66-0.935
		c-1.428,1.376-2.526,1.927-3.353,1.927c-1.482,0-3.02-1.321-4.342-3.41c-0.163-0.328-0.383-0.658-0.549-0.987
		c0.88-1.704,1.539-3.572,2.31-5.219c1.428-3.186,2.306-4.233,3.628-4.233c2.194,0,0.438,3.683,2.798,3.683
		c1.101,0,1.651-0.934,1.815-1.813C66.481,110.817,65.546,108.511,62.414,108.511L62.414,108.511z M48.184,98.509
		c0.384-2.255,2.309-4.672,5.275-4.672c2.308,0,3.846,1.757,3.352,4.451c-0.164,1.043-0.456,1.968-1.491,3.27
		c-1.04,1.302-4.778,3.615-6.571,4.562C47.94,103.498,47.73,101.087,48.184,98.509L48.184,98.509z M47.414,124.17
		c-4.397,0-6.045-3.681-5.551-6.598c0.605-3.46,2.207-5.631,4.35-7.553c1.54,3.726,3.534,7.671,6.379,11.641
		C51.108,123.419,49.61,124.17,47.414,124.17L47.414,124.17z"/>
	<path fill="#FFFFFF" stroke="#FFFFFF" stroke-width="0.1873" stroke-miterlimit="2.6131" d="M47.16,97.363
		c0,0-3.019,4.592,1.199,13.904c3.458,7.633,7.595,11.942,7.595,11.942s-4.195-5.747-7.027-12.563
		C45.478,102.334,47.16,97.363,47.16,97.363L47.16,97.363z"/>
</g>
</svg>
