<?xml version="1.0" encoding="utf-8"?>
<!-- Generator: Adobe Illustrator 16.0.4, SVG Export Plug-In . SVG Version: 6.00 Build 0)  -->
<!DOCTYPE svg PUBLIC "-//W3C//DTD SVG 1.1//EN" "http://www.w3.org/Graphics/SVG/1.1/DTD/svg11.dtd">
<svg version="1.1" id="Layer_1" xmlns="http://www.w3.org/2000/svg" xmlns:xlink="http://www.w3.org/1999/xlink" x="0px" y="0px"
	 width="197.334px" height="179.667px" viewBox="0 0 197.334 179.667" enable-background="new 0 0 197.334 179.667"
	 xml:space="preserve">
<g>
	<polygon fill-rule="evenodd" clip-rule="evenodd" fill="#FFFFFF" points="27.854,103.133 27.854,114.631 24.999,114.631 
		24.999,103.133 20.792,103.133 20.792,100.754 31.908,100.754 31.908,103.133 27.854,103.133 	"/>
	<polygon fill-rule="evenodd" clip-rule="evenodd" fill="#FFFFFF" points="48.997,114.631 48.997,108.349 43.495,108.349 
		43.495,114.631 40.64,114.631 40.64,100.754 43.495,100.754 43.495,105.968 48.997,105.968 48.997,100.754 51.853,100.754 
		51.853,114.631 48.997,114.631 	"/>
	<polygon fill-rule="evenodd" clip-rule="evenodd" fill="#FFFFFF" points="61.786,114.631 61.786,100.754 71.836,100.754 
		71.836,103.133 64.642,103.133 64.642,106.293 71.285,106.293 71.285,108.672 64.642,108.672 64.642,112.25 72.16,112.25 
		72.16,114.631 61.786,114.631 	"/>
	<path fill-rule="evenodd" clip-rule="evenodd" fill="#FFFFFF" d="M90.642,114.631l-0.952-2.78h-5.14l-0.971,2.78h-2.912
		l4.835-13.877h3.292l4.759,13.877H90.642L90.642,114.631z M87.157,104.084l-1.713,5.387h3.561L87.157,104.084L87.157,104.084z"/>
	<polygon fill-rule="evenodd" clip-rule="evenodd" fill="#FFFFFF" points="108.436,103.133 108.436,114.631 105.582,114.631 
		105.582,103.133 101.374,103.133 101.374,100.754 112.491,100.754 112.491,103.133 108.436,103.133 	"/>
	<path fill-rule="evenodd" clip-rule="evenodd" fill="#FFFFFF" d="M129.751,114.631c-0.229-0.42-0.344-0.838-0.38-1.294
		c-0.04-0.686,0-1.789,0-2.8c0-0.933-0.726-1.389-1.714-1.389h-3.35v5.482h-2.856v-13.877h7.71c1.389,0,2.779,0.703,3.197,2.208
		c0.172,0.609,0.476,1.598,0.134,2.799c-0.343,1.198-0.953,1.635-1.883,2.189c0.474,0.322,1.388,0.666,1.54,1.922
		c0.075,0.569,0.133,2.397,0.133,3.102c0.02,0.781,0.229,0.952,0.532,1.143v0.515H129.751L129.751,114.631z M128.171,103.133h-3.863
		v3.636h3.902c0.666,0,1.864-0.705,1.692-2.074C129.902,103.705,129.446,103.133,128.171,103.133L128.171,103.133z"/>
	<polygon fill-rule="evenodd" clip-rule="evenodd" fill="#FFFFFF" points="142.367,114.631 142.367,100.754 152.419,100.754 
		152.419,103.133 145.225,103.133 145.225,106.293 151.866,106.293 151.866,108.672 145.225,108.672 145.225,112.25 152.743,112.25 
		152.743,114.631 142.367,114.631 	"/>
	<path fill-rule="evenodd" clip-rule="evenodd" fill="#FFFFFF" d="M169.663,104.98c0.038-1.123-0.894-2.15-2.855-2.189
		c-1.391-0.019-2.417,0.456-2.515,1.599c-0.075,0.952,0.249,1.144,0.877,1.39c0.323,0.344,2.952,0.761,3.484,0.856
		c0.76,0.134,2.399,0.476,3.271,1.371c1.602,1.675,0.858,4.968-0.872,6.092c-1.181,0.762-2.801,0.951-4.34,0.971
		c-0.705,0.02-2.381-0.228-3.41-0.971c-1.236-0.896-1.845-2.265-1.94-3.579h2.778c0,0.363,0.115,0.934,0.59,1.446
		c0.63,0.646,1.657,0.838,2.608,0.801c0.953-0.02,1.847-0.305,2.21-0.647c0.607-0.57,0.741-1.657,0.056-2.343
		c-0.912-0.952-3.654-0.952-5.444-1.56c-1.505-0.515-2.741-1.6-2.514-3.847c0.23-2.206,1.828-3.845,5.218-3.845
		c0.742,0,3.331,0.057,4.681,1.77c0.725,0.934,0.915,2.229,0.801,2.686H169.663L169.663,104.98z"/>
	<path fill-rule="evenodd" clip-rule="evenodd" fill="#FFFFFF" d="M166.917,91.514c0-1.499,1.221-2.72,2.734-2.72
		c1.507,0,2.721,1.221,2.721,2.72c0,1.515-1.214,2.733-2.721,2.733C168.138,94.248,166.917,93.029,166.917,91.514L166.917,91.514z
		 M172.043,91.514c0-1.32-1.071-2.391-2.392-2.391c-1.328,0-2.399,1.071-2.399,2.391c0,1.335,1.071,2.406,2.399,2.406
		C170.972,93.92,172.043,92.849,172.043,91.514L172.043,91.514z M171.008,93.042h-0.44l-0.872-1.407h-0.687v1.407h-0.37v-3.048
		h1.327c0.258,0,0.515,0.015,0.743,0.15c0.228,0.129,0.343,0.4,0.343,0.656c0,0.6-0.421,0.821-0.965,0.834L171.008,93.042
		L171.008,93.042z M169.58,91.343c0.43,0,1.094,0.071,1.094-0.551c0-0.471-0.415-0.527-0.793-0.527h-0.872v1.078H169.58
		L169.58,91.343z"/>
	<path fill-rule="evenodd" clip-rule="evenodd" fill="#FFFFFF" d="M101.167,63.216c6.905-5.845,14.144-5.727,20.302-2.692
		c5.726,3.019,7.778,7.362,7.867,13.698l-0.005,15.554c0,0-0.054,4.387-4.553,4.387c-4.275,0-4.478-4.358-4.478-4.358l-0.061-15.367
		c0,0-0.26-7.139-7.397-7.139c-7.177,0-7.746,7.102-7.746,7.102v15.126c0,0,0,4.581-4.545,4.581c-4.436,0-4.527-4.581-4.527-4.581
		l-0.003-15.081c0,0-0.134-7.146-7.72-7.146c-7.547,0-7.354,7.251-7.354,7.251v15.513c0,0-0.528,4.082-4.506,4.082
		c-4.128,0-4.544-4.12-4.544-4.12l-0.03-15.653c0-5.771,1.116-11.497,9.326-14.739c3.73-1.474,8.105-1.443,12.032-0.55
		c2.618,0.952,4.877,2.23,7.079,4.135l0.418,0.364L101.167,63.216L101.167,63.216z"/>
	<path fill-rule="evenodd" clip-rule="evenodd" fill="#FFFFFF" d="M57.367,89.682c0-4.499-4.462-4.514-4.462-4.514H36.828
		c-0.952,0-1.063-0.729-0.833-1.576c1.963-4.878,6.318-10.341,10.976-12.724c3.852-1.971,8.27-4.016,12.851-3.718
		c0.955,0.075,0.955,0.521,0.959,2.022v20.291c0,0,0.23,4.605,4.692,4.605c4.592,0,4.227-4.454,4.227-4.454l-0.018-25.476
		c0.06-1.547-0.224-3.035-1.146-4.224c-0.684-0.625-1.606-1.279-2.646-1.428c-5.473-0.446-10.731,0.049-15.766,1.517
		C40.785,62.725,31.86,70.311,27.28,79.338c-1.561,3.074-3.004,7.109-3.064,10.828c0.06,1.784,0.803,3.867,2.841,3.867l25.923,0.133
		C52.98,94.166,57.367,94.33,57.367,89.682L57.367,89.682z"/>
	<path fill-rule="evenodd" clip-rule="evenodd" fill="#FFFFFF" d="M164.569,78.638c4.538,0.473,3.971,4.729,3.971,4.729
		c-2.45,7.707-9.664,12.413-18.181,12.413c-10.534,0-19.073-8.54-19.073-19.075c0-10.534,8.539-19.074,19.073-19.074
		c8.554,0,15.792,4.173,18.213,11.93c0,0,1.154,4.667-3.867,5.25c-3.717,0-4.288-3.032-4.288-3.032
		c-1.438-4.159-5.39-5.692-10.038-5.692c-5.864,0-10.619,4.754-10.619,10.618c0,5.865,4.755,10.618,10.619,10.618
		c4.592,0,8.502-2.04,9.983-6.121C160.362,81.202,161.273,78.564,164.569,78.638L164.569,78.638z"/>
</g>
</svg>
