<?xml version="1.0" encoding="utf-8"?>
<!-- Generator: Adobe Illustrator 16.0.4, SVG Export Plug-In . SVG Version: 6.00 Build 0)  -->
<!DOCTYPE svg PUBLIC "-//W3C//DTD SVG 1.1//EN" "http://www.w3.org/Graphics/SVG/1.1/DTD/svg11.dtd">
<svg version="1.1" id="Layer_1" xmlns="http://www.w3.org/2000/svg" xmlns:xlink="http://www.w3.org/1999/xlink" x="0px" y="0px"
	 width="197.334px" height="179.667px" viewBox="0 0 197.334 179.667" enable-background="new 0 0 197.334 179.667"
	 xml:space="preserve">
<path fill="#FFFFFF" d="M51.687,98.853c-1.136,0-2.026,0.796-2.026,1.955c0,1.158,0.895,1.95,2.026,1.95
	c1.131,0,2.025-0.796,2.025-1.95C53.712,99.649,52.822,98.853,51.687,98.853z M51.687,102.199c-0.81,0-1.41-0.592-1.41-1.391
	c0-0.801,0.596-1.396,1.41-1.396c0.804,0,1.41,0.606,1.41,1.396C53.096,101.593,52.486,102.199,51.687,102.199z"/>
<polygon fill="#FFFFFF" points="71.394,92.018 61.534,92.018 62.655,74.881 56.252,92.018 47.097,92.018 61.624,53.285 
	71.366,53.285 70.241,70.656 76.765,53.285 85.92,53.285 "/>
<polygon fill="#FFFFFF" points="72.583,92.018 87.108,53.285 96.265,53.285 81.738,92.018 "/>
<path fill="#FFFFFF" d="M46.042,78.667c-12.794,15.024-24.862,35.014-14.202,44.22c10.329,8.921,23.24,3.639,32.043,0.118
	c8.803-3.521,106.106-45.776,106.106-45.776c0.939-0.47,0.763-1.056-0.411-0.763c-0.474,0.118-105.93,28.698-105.93,28.698
	C50.267,108.919,35.009,100.733,46.042,78.667z"/>
<path fill="#FFFFFF" d="M52.032,100.946c0.284-0.015,0.506-0.161,0.506-0.555c0-0.507-0.331-0.634-0.885-0.634h-0.795v2.101h0.53
	v-0.894h0.09l0.483,0.894h0.61L52.032,100.946z M51.691,100.605h-0.303v-0.488h0.255c0.156,0,0.336,0.02,0.336,0.222
	C51.979,100.557,51.875,100.605,51.691,100.605z"/>
<path fill="#FFFFFF" d="M143.719,53.167c-1.136,0-2.025,0.795-2.025,1.955s0.894,1.95,2.025,1.95c1.131,0,2.025-0.795,2.025-1.95
	C145.744,53.962,144.855,53.167,143.719,53.167z M143.719,56.512c-0.81,0-1.411-0.591-1.411-1.391s0.597-1.396,1.411-1.396
	c0.805,0,1.409,0.605,1.409,1.396C145.128,55.907,144.519,56.512,143.719,56.512z"/>
<path fill="#FFFFFF" d="M144.064,55.258c0.284-0.014,0.506-0.161,0.506-0.553c0-0.507-0.331-0.634-0.885-0.634h-0.795v2.101h0.53
	v-0.895h0.09l0.482,0.895h0.609L144.064,55.258z M143.724,54.917h-0.303V54.43h0.256c0.155,0,0.335,0.019,0.335,0.222
	C144.012,54.87,143.908,54.917,143.724,54.917z"/>
<path fill="#FFFFFF" d="M137.687,59.74l2.46-6.456h-18.346h-0.082h-9.507l-9.593,11.62l4.428-11.62h-9.272L83.366,92.018h9.155
	l6.151-16.198l0.422,16.198l28.092-0.061l2.674-7.451h-10.681l3.508-9.39h8.804l2.709-7.218h-8.804l3.018-8.158H137.687z
	 M108.177,89.435l-0.587-20.188l13.842-15.198L108.177,89.435z"/>
</svg>
