<?xml version="1.0" encoding="utf-8"?>
<!-- Generator: Adobe Illustrator 16.0.4, SVG Export Plug-In . SVG Version: 6.00 Build 0)  -->
<!DOCTYPE svg PUBLIC "-//W3C//DTD SVG 1.1//EN" "http://www.w3.org/Graphics/SVG/1.1/DTD/svg11.dtd">
<svg version="1.1" id="Layer_1" xmlns="http://www.w3.org/2000/svg" xmlns:xlink="http://www.w3.org/1999/xlink" x="0px" y="0px"
	 width="197.334px" height="179.667px" viewBox="0 0 197.334 179.667" enable-background="new 0 0 197.334 179.667"
	 xml:space="preserve">
<g>
	<g>
		<g>
			<path fill="#FFFFFF" d="M144.617,95.991c0.09-1.042,0.992-1.799,2.039-1.707c1.047,0.091,1.804,0.992,1.712,2.034
				c-0.09,1.044-0.99,1.8-2.038,1.709C145.283,97.935,144.525,97.036,144.617,95.991z M144.922,96.018
				c-0.076,0.881,0.578,1.629,1.436,1.704c0.856,0.073,1.629-0.55,1.707-1.431c0.077-0.886-0.577-1.63-1.435-1.704
				S144.999,95.133,144.922,96.018z M147.257,97.295l-0.348-0.029l-0.453-1.019l-0.39-0.033l-0.085,0.971l-0.306-0.025l0.184-2.106
				l0.886,0.079c0.382,0.031,0.714,0.177,0.676,0.619c-0.036,0.413-0.331,0.543-0.612,0.527L147.257,97.295z M146.138,95.384
				l-0.045,0.524l0.322,0.029c0.287,0.024,0.674,0.105,0.699-0.18c0.022-0.267-0.199-0.307-0.452-0.328L146.138,95.384z"/>
		</g>
		<g>
			<path fill="#FFFFFF" d="M124.741,91.963l3.01,6.218l0.336,0.029c0.398-0.69,0.755-1.386,1.236-2.039l2.597-3.58l12.932,1.131
				l-11.957,11.918l-0.854,9.747l-11.251-0.982l0.852-9.747l-9.917-13.832L124.741,91.963z"/>
		</g>
		<g>
			<path fill="#FFFFFF" d="M112.104,90.859l-1.17,13.377c-0.577,6.597-6.426,9.107-14.969,8.359
				c-8.542-0.747-13.866-4.233-13.289-10.832l1.169-13.375l11.093,0.971l-1.101,12.596c-0.155,1.768-0.21,3.335,2.745,3.593
				c2.957,0.258,3.172-1.293,3.329-3.062l1.101-12.596L112.104,90.859z"/>
		</g>
		<g>
			<path fill="#FFFFFF" d="M56.001,85.909l13.393,1.172c6.129,0.536,12.294,2.133,11.836,7.351c-0.173,1.98-1.729,3.809-4.555,4.195
				l-0.016,0.181c3.366,1.171,5.392,3.161,5.156,5.86c-0.407,4.648-6.592,5.709-12.134,5.224l-15.66-1.369L56.001,85.909z
				 M66.953,95.631c1.68,0.146,3.579,0.191,3.716-1.368c0.146-1.679-2.005-1.746-3.685-1.894l-0.798-0.068l-0.283,3.238
				L66.953,95.631z M65.158,104.056l1.302,0.114c1.889,0.163,4.621,0.374,4.783-1.486c0.166-1.889-2.776-2.115-4.624-2.277
				l-1.133-0.099L65.158,104.056z"/>
		</g>
		<g>
			<path fill="#FFFFFF" d="M81.893,62.703l21.286,1.861l-0.539,6.177l-9.7-0.848l-0.188,2.16l8.859,0.774l-0.516,5.878l-8.858-0.774
				l-0.194,2.219l10.035,0.877l-0.542,6.177l-21.621-1.891L81.893,62.703z"/>
		</g>
		<g>
			<path fill="#FFFFFF" d="M106.351,79.468l0.56,0.381c1.957,1.319,4.352,2.465,6.997,2.697c1.134,0.099,2.969-0.073,3.058-1.093
				s-1.415-1.242-2.45-1.483l-2.283-0.502c-4.443-0.963-8.056-3.183-7.748-6.721c0.471-5.369,7.576-7.77,14.461-7.167
				c3.611,0.316,6.872,1.235,9.862,2.856l-3.613,5.516c-1.89-1.132-4.049-2.077-6.525-2.292c-1.008-0.088-2.502,0.053-2.582,0.982
				c-0.074,0.84,1.343,1.084,2.211,1.312l2.567,0.647c4.801,1.206,8.165,3.373,7.829,7.212c-0.473,5.398-7.591,7.465-14.435,6.867
				c-3.987-0.35-8.537-1.532-11.994-3.134L106.351,79.468z"/>
		</g>
		<g>
			<path fill="#FFFFFF" d="M129.696,66.883l24.184,2.114l-0.643,7.348l-6.322-0.764l-1.354,15.474l-11.503-1.006l1.354-15.474
				l-6.358-0.345L129.696,66.883z"/>
		</g>
		<g>
			<path fill="#FFFFFF" d="M53.62,60.103l13.393,1.172c6.129,0.536,12.293,2.133,11.837,7.352c-0.174,1.979-1.73,3.807-4.556,4.195
				L74.279,73c3.367,1.171,5.392,3.162,5.156,5.86c-0.407,4.648-6.593,5.709-12.134,5.225l-15.66-1.371L53.62,60.103z
				 M64.572,69.824c1.68,0.146,3.58,0.192,3.716-1.367c0.146-1.679-2.005-1.747-3.685-1.894l-0.797-0.07l-0.283,3.239L64.572,69.824
				z M62.777,78.25l1.302,0.114c1.89,0.165,4.621,0.374,4.783-1.486c0.166-1.89-2.776-2.116-4.623-2.278l-1.134-0.099L62.777,78.25z
				"/>
		</g>
	</g>
	<path fill="#FFFFFF" d="M153.156,131.227l-96.994-8.485L33.761,96.906l2.776-31.729l26.515-21.074l96.984,8.485L153.156,131.227z
		 M57.736,119.658l92.502,8.093l6.322-72.245l-92.513-8.094L39.614,66.831l-2.537,29L57.736,119.658z M44.081,87.422
		c-0.146,0-0.292-0.007-0.439-0.019c-2.745-0.242-4.783-2.669-4.543-5.414c0.242-2.746,2.626-4.786,5.415-4.543
		c2.745,0.24,4.782,2.668,4.542,5.413C48.827,85.461,46.688,87.422,44.081,87.422z M44.072,80.637c-0.916,0-1.696,0.717-1.776,1.633
		c-0.086,0.981,0.644,1.851,1.625,1.936c0.978,0.088,1.852-0.657,1.937-1.625c0.087-0.982-0.643-1.851-1.625-1.937
		C44.179,80.64,44.125,80.637,44.072,80.637z"/>
</g>
</svg>
