<?xml version="1.0" encoding="utf-8"?>
<!-- Generator: Adobe Illustrator 16.0.4, SVG Export Plug-In . SVG Version: 6.00 Build 0)  -->
<!DOCTYPE svg PUBLIC "-//W3C//DTD SVG 1.1//EN" "http://www.w3.org/Graphics/SVG/1.1/DTD/svg11.dtd">
<svg version="1.1" id="Layer_1" xmlns="http://www.w3.org/2000/svg" xmlns:xlink="http://www.w3.org/1999/xlink" x="0px" y="0px"
	 width="197.334px" height="179.667px" viewBox="0 0 197.334 179.667" enable-background="new 0 0 197.334 179.667"
	 xml:space="preserve">
<g>
	<path fill="#FFFFFF" d="M68.546,120.863l-2.822,2.818l-1.856-1.858l2.816-2.82l-7.292-7.289c-1.183-1.184-1.345-1.408-2.821-0.64
		c-0.541,0.288-1.124,0.284-1.569-0.166c-0.931-0.929,0.063-2.047,0.192-2.175l9.066-9.066c0.125-0.128,1.245-1.118,2.176-0.195
		c0.452,0.454,0.456,1.029,0.165,1.573c-0.771,1.477-0.546,1.637,0.643,2.819l16.822,16.825c1.186,1.19,1.345,1.415,2.825,0.641
		c0.543-0.283,1.118-0.283,1.57,0.166c0.926,0.931-0.061,2.053-0.188,2.183l-9.068,9.064c-0.128,0.125-1.251,1.116-2.181,0.19
		c-0.446-0.454-0.447-1.029-0.164-1.575c0.774-1.472,0.547-1.634-0.639-2.819L68.546,120.863L68.546,120.863z M68.423,143.525
		h-3.698c0.008-0.019,0.019-0.039,0.029-0.058c0.766-1.47,0.542-1.634-0.644-2.821l-16.824-16.818
		c-1.19-1.192-1.348-1.416-2.822-0.648c-0.014,0.008-0.028,0.017-0.042,0.021V119.5l7.729-7.724
		c0.127-0.127,1.247-1.124,2.177-0.196c0.449,0.452,0.453,1.028,0.164,1.573c-0.772,1.477-0.545,1.635,0.645,2.825l16.822,16.817
		c1.187,1.191,1.346,1.417,2.823,0.646c0.544-0.288,1.123-0.288,1.572,0.164c0.928,0.933-0.065,2.05-0.19,2.179L68.423,143.525
		L68.423,143.525z"/>
	<path fill="#FFFFFF" d="M114.613,49.316l8.451-8.457l24.015,24.006l-8.458,8.46c-0.127,0.127-1.253,1.121-2.177,0.19
		c-0.452-0.45-0.452-1.03-0.163-1.571c0.767-1.474,0.543-1.635-0.646-2.827l-16.825-16.821c-1.188-1.185-1.346-1.411-2.821-0.642
		c-0.546,0.289-1.124,0.289-1.571-0.163C113.487,50.567,114.486,49.44,114.613,49.316L114.613,49.316z M129.139,34.786h5.028
		l4.003,4.001c0.158,0.159,0.739,0.805-0.225,1.762c-0.546,0.546-1.028,0.386-1.668,0.068c-3.432-1.775-6.64-1.708-9.908,0.66
		l-1.862-1.86L129.139,34.786L129.139,34.786z M153.161,53.336v5.45l-4.643,4.64l-1.857-1.86c2.274-2.917,2.489-6.668,0.788-10.1
		c-0.256-0.707-0.579-1.415-0.004-1.987c1.029-1.026,1.893,0.034,2.021,0.164L153.161,53.336L153.161,53.336z M135.232,50.138
		c0.992-1.699,0.347-3.558-0.586-5.068c-0.379-0.702-0.703-1.411-0.031-2.084c0.992-0.988,1.991,0.324,2.249,0.581l6.93,6.932
		c0.256,0.256,1.572,1.255,0.582,2.247c-0.672,0.674-1.379,0.345-2.089-0.036c-1.51-0.929-3.365-1.57-5.064-0.583L135.232,50.138
		L135.232,50.138z"/>
	<path fill="#FFFFFF" d="M105.429,139.559l-3.965,3.966h-2.107c0.055-0.126,0.123-0.256,0.188-0.394
		c0.237-0.447-0.287-0.902-0.561-1.172l-9.455-9.461c-0.272-0.27-0.721-0.792-1.171-0.555c-0.487,0.232-0.885,0.521-1.337,0.071
		c-0.47-0.469-0.072-0.977,0.291-1.332l4.62-4.622L105.429,139.559L105.429,139.559z"/>
	<path fill="#FFFFFF" d="M135.675,82.313l4.425-4.424l11.479,11.479c0.662,0.671,0.757,0.795,1.581,0.365v2.096l-4.326,4.326
		c-0.073,0.069-0.704,0.633-1.229,0.107c-0.252-0.252-0.252-0.577-0.089-0.884c0.434-0.83,0.307-0.92-0.359-1.586L135.675,82.313
		L135.675,82.313z M147.717,78.683c0.072,0.073,0.47,0.578-0.075,1.119c-0.505,0.504-1.064,0.127-1.511-0.218
		c-1.121-0.792-2.566-1.729-4.17-1.458l-1.051-1.046l2.599-2.601L147.717,78.683L147.717,78.683z M132.266,85.721l2.601-2.596
		l1.048,1.044c-0.274,1.61,0.665,3.05,1.461,4.171c0.344,0.45,0.72,1.01,0.214,1.512c-0.541,0.543-1.045,0.149-1.117,0.075
		L132.266,85.721L132.266,85.721z"/>
	<path fill="#FFFFFF" d="M144.536,138.208c0-1.752,1.424-3.047,3.105-3.047c1.668,0,3.092,1.295,3.092,3.047
		c0,1.771-1.424,3.065-3.092,3.065C145.962,141.273,144.536,139.979,144.536,138.208L144.536,138.208z M147.642,140.764
		c1.386,0,2.477-1.085,2.477-2.557c0-1.448-1.091-2.537-2.477-2.537c-1.398,0-2.488,1.089-2.488,2.537
		C145.153,139.679,146.245,140.764,147.642,140.764L147.642,140.764z M146.997,139.979h-0.532v-3.523h1.34
		c0.833,0,1.243,0.304,1.243,1.002c0,0.628-0.392,0.903-0.911,0.967l1.001,1.553h-0.597l-0.931-1.527h-0.613V139.979
		L146.997,139.979z M147.633,137.998c0.454,0,0.86-0.033,0.86-0.574c0-0.437-0.396-0.519-0.769-0.519h-0.729v1.093H147.633
		L147.633,137.998z"/>
	<path fill="#FFFFFF" d="M77.173,89.511c-0.962,2.051-0.125,3.141,0.678,3.943l16.629,16.627c0.802,0.807,1.896,1.641,3.942,0.678
		l1.863,1.863c-7.4,6.183-16.06,3.866-22.449-2.522c-6.387-6.392-8.705-15.05-2.524-22.45L77.173,89.511L77.173,89.511z
		 M99.866,109.324c0.961-2.049,0.124-3.146-0.684-3.945L82.559,88.748c-0.802-0.801-1.898-1.636-3.942-0.675l-1.863-1.859
		c7.399-6.183,16.061-3.867,22.451,2.521c6.387,6.388,8.706,15.049,2.523,22.449L99.866,109.324L99.866,109.324z"/>
	<path fill="#FFFFFF" d="M135.262,74.696c-0.449-0.445-1.026-0.452-1.572-0.16c-1.472,0.768-1.63,0.544-2.821-0.646l-16.821-16.82
		c-1.192-1.188-1.419-1.346-0.646-2.825c0.282-0.543,0.282-1.123-0.165-1.572c-0.929-0.93-2.05,0.065-2.177,0.191l-8.457,8.456
		l6.905,12.803l-0.065,0.062l-13.278-6.425l-8.131,8.131c-0.384,0.383-1.347,1.345-0.356,2.34c0.77,0.773,1.703-0.028,2.117-0.383
		c0.578-0.509,1.095-0.254,1.86-0.059c0.675,0.16,1.316,0.482,1.958,0.807l26.56,13.17l0.926-0.926l-12.99-24.013l14.908,14.909
		c1.188,1.188,1.412,1.35,0.643,2.821c-0.293,0.549-0.288,1.124,0.166,1.573c0.929,0.929,2.048-0.06,2.177-0.191l9.069-9.067
		C135.203,76.748,136.191,75.626,135.262,74.696L135.262,74.696z"/>
	<path fill="#FFFFFF" d="M110.17,91.628l-5.521-5.521l-7.089-3.502l-0.062,0.064l10.814,10.818c3.5,4.524,0.199,5.325,1.582,6.706
		c0.992,0.992,2.242-0.386,2.593-0.741l3.651-3.647c0.352-0.354,1.728-1.599,0.73-2.594
		C115.489,91.833,114.694,95.131,110.17,91.628L110.17,91.628z"/>
	<path fill="#FFFFFF" d="M92.739,125.246c3.032-3.105,7.723-3.538,12.603,0.908c4.435,4.038,3.896,9.597,0.901,12.594l-1.05-1.046
		c0.959-1.246-0.017-2.331-0.703-3.017l-7.688-7.688c-0.688-0.688-1.769-1.658-3.012-0.702L92.739,125.246L92.739,125.246z"/>
	<path fill="#FFFFFF" d="M99.471,118.517l4.764-4.766l13.5,13.501l-4.763,4.765c-0.075,0.073-0.707,0.632-1.229,0.108
		c-0.25-0.254-0.252-0.579-0.09-0.885c0.434-0.828,0.306-0.921-0.358-1.586l-9.459-9.459c-0.666-0.667-0.758-0.796-1.588-0.363
		c-0.308,0.165-0.634,0.165-0.889-0.087C98.838,119.224,99.399,118.588,99.471,118.517L99.471,118.517z M105.05,112.94l4.021-4.021
		l3.663,3.658c0.092,0.092,0.417,0.453-0.124,0.998c-0.311,0.304-0.575,0.217-0.938,0.036c-1.935-0.993-3.734-0.959-5.581,0.378
		L105.05,112.94L105.05,112.94z M117.501,125.395c1.28-1.642,1.405-3.754,0.452-5.688c-0.143-0.396-0.326-0.79-0.001-1.118
		c0.578-0.576,1.067,0.017,1.139,0.09l3.611,3.614l-4.15,4.147L117.501,125.395L117.501,125.395z M111.073,118.967
		c0.562-0.955,0.199-1.998-0.324-2.848c-0.216-0.397-0.396-0.799-0.019-1.181c0.563-0.558,1.122,0.186,1.268,0.329l3.899,3.898
		c0.143,0.143,0.881,0.703,0.319,1.266c-0.377,0.379-0.777,0.198-1.172-0.02c-0.849-0.525-1.893-0.887-2.85-0.324L111.073,118.967
		L111.073,118.967z"/>
	<path fill="#FFFFFF" d="M116.037,101.953c1.716-1.717,2.906-2.55,4.245-2.906c2.13-0.545,3.846,0.125,5.361,1.637
		c1.512,1.517,2.184,3.233,1.642,5.362c-0.362,1.339-1.192,2.529-2.909,4.242l-1.046-1.044c0.864-1.268,0.182-2.06-0.701-2.944
		l-2.726-2.729c-0.813-0.808-1.718-1.387-2.819-0.572L116.037,101.953L116.037,101.953z M112.823,109.208
		c-0.667-0.666-0.758-0.792-1.591-0.362c-0.305,0.167-0.628,0.162-0.88-0.091c-0.524-0.522,0.032-1.156,0.105-1.229l4.768-4.762
		l11.479,11.482c0.664,0.663,0.754,0.792,1.587,0.357c0.308-0.163,0.635-0.165,0.887,0.089c0.523,0.524-0.036,1.156-0.109,1.227
		l-5.108,5.107c-0.07,0.078-0.562,0.492-1.085-0.031c-0.252-0.253-0.298-0.535-0.135-0.843c0.436-0.828,0.206-0.818-0.461-1.488
		L112.823,109.208L112.823,109.208z"/>
	<path fill="#FFFFFF" d="M127.478,92.065c-0.541,1.153-0.073,1.767,0.378,2.22l9.352,9.349c0.451,0.451,1.063,0.92,2.22,0.38
		l1.046,1.044c-4.168,3.488-9.04,2.19-12.632-1.406c-3.594-3.591-4.894-8.464-1.413-12.636L127.478,92.065L127.478,92.065z
		 M140.237,103.199c0.539-1.154,0.073-1.764-0.379-2.22l-9.35-9.348c-0.452-0.453-1.065-0.919-2.222-0.382l-1.045-1.043
		c4.172-3.488,9.043-2.185,12.632,1.409c3.591,3.588,4.896,8.461,1.41,12.633L140.237,103.199L140.237,103.199z"/>
	<path fill="#FFFFFF" d="M57.456,75.958l4.156-4.155l10.788,10.787c0.629,0.629,0.715,0.746,1.494,0.339
		c0.288-0.153,0.593-0.153,0.832,0.086c0.491,0.49-0.034,1.085-0.102,1.151l-4.8,4.805c-0.068,0.064-0.662,0.592-1.154,0.099
		c-0.238-0.236-0.238-0.542-0.085-0.831c0.407-0.781,0.289-0.865-0.34-1.493L57.456,75.958L57.456,75.958z M68.77,72.549
		c0.068,0.069,0.442,0.542-0.067,1.054c-0.476,0.474-1.002,0.118-1.425-0.205c-1.053-0.745-2.408-1.627-3.918-1.374l-0.984-0.984
		l2.443-2.441L68.77,72.549L68.77,72.549z M54.248,79.167l2.443-2.443l0.983,0.983c-0.254,1.509,0.627,2.866,1.373,3.921
		c0.323,0.422,0.68,0.948,0.205,1.423c-0.508,0.509-0.985,0.136-1.052,0.066L54.248,79.167L54.248,79.167z"/>
	<path fill="#FFFFFF" d="M81.221,73.772c0.629,0.626,0.713,0.746,1.492,0.338c0.291-0.151,0.595-0.151,0.833,0.085
		c0.492,0.492-0.034,1.087-0.101,1.154l-4.802,4.8c-0.067,0.068-0.662,0.593-1.153,0.101c-0.238-0.237-0.238-0.544-0.085-0.831
		c0.408-0.78,0.289-0.866-0.338-1.492l-8.889-8.89c-0.627-0.627-0.715-0.746-1.493-0.339c-0.29,0.154-0.594,0.154-0.831-0.085
		c-0.493-0.49,0.033-1.085,0.102-1.153l4.801-4.8c0.069-0.067,0.662-0.595,1.152-0.102c0.237,0.237,0.237,0.543,0.084,0.831
		c-0.406,0.779-0.288,0.866,0.34,1.493L81.221,73.772L81.221,73.772z M79.423,67.46l-1.493,1.494l-0.984-0.984l1.491-1.492
		l-3.849-3.851c-0.629-0.628-0.712-0.748-1.492-0.341c-0.29,0.155-0.595,0.155-0.832-0.083c-0.492-0.492,0.033-1.085,0.1-1.155
		l4.801-4.799c0.068-0.069,0.662-0.595,1.154-0.103c0.237,0.237,0.237,0.544,0.086,0.831c-0.409,0.781-0.289,0.866,0.338,1.494
		l8.889,8.889c0.627,0.628,0.711,0.746,1.495,0.339c0.285-0.152,0.592-0.152,0.828,0.084c0.494,0.493-0.034,1.087-0.101,1.154
		l-4.801,4.801c-0.066,0.069-0.659,0.593-1.151,0.102c-0.239-0.236-0.239-0.543-0.087-0.831c0.405-0.781,0.289-0.865-0.339-1.494
		L79.423,67.46L79.423,67.46z"/>
	<path fill="#FFFFFF" d="M78.765,54.649l4.479-4.478L95.933,62.86l-4.479,4.478c-0.067,0.068-0.661,0.593-1.152,0.102
		c-0.237-0.237-0.237-0.543-0.085-0.832c0.407-0.781,0.288-0.865-0.34-1.494l-8.887-8.887c-0.628-0.627-0.714-0.748-1.495-0.339
		c-0.287,0.153-0.595,0.153-0.831-0.086C78.172,55.31,78.699,54.718,78.765,54.649L78.765,54.649z M84.007,49.408l3.784-3.784
		l3.441,3.444c0.084,0.084,0.391,0.423-0.118,0.933c-0.291,0.288-0.543,0.204-0.883,0.034c-1.815-0.932-3.511-0.9-5.242,0.356
		L84.007,49.408L84.007,49.408z M95.713,61.112c1.204-1.544,1.324-3.528,0.424-5.344c-0.137-0.374-0.307-0.747,0-1.051
		c0.54-0.545,1.001,0.017,1.068,0.084l3.393,3.393l-3.902,3.901L95.713,61.112L95.713,61.112z M89.673,55.072
		c0.527-0.899,0.187-1.883-0.306-2.679c-0.202-0.374-0.373-0.747-0.018-1.103c0.526-0.526,1.053,0.169,1.188,0.306l3.665,3.665
		c0.133,0.135,0.83,0.662,0.305,1.186c-0.356,0.356-0.731,0.187-1.105-0.017c-0.795-0.491-1.779-0.832-2.679-0.304L89.673,55.072
		L89.673,55.072z"/>
</g>
</svg>
