<?xml version="1.0" encoding="utf-8"?>
<!-- Generator: Adobe Illustrator 16.0.4, SVG Export Plug-In . SVG Version: 6.00 Build 0)  -->
<!DOCTYPE svg PUBLIC "-//W3C//DTD SVG 1.1//EN" "http://www.w3.org/Graphics/SVG/1.1/DTD/svg11.dtd">
<svg version="1.1" id="Layer_1" xmlns="http://www.w3.org/2000/svg" xmlns:xlink="http://www.w3.org/1999/xlink" x="0px" y="0px"
	 width="197.334px" height="179.667px" viewBox="0 0 197.334 179.667" enable-background="new 0 0 197.334 179.667"
	 xml:space="preserve">
<g>
	<path fill="#FFFFFF" d="M92.052,71.723c0-9.101,5.449-11.833,10.591-14.713c0.212-0.101,0.096-0.564-0.211-0.514
		c-2.559,0.362-4.109-1.39-5.965-1.39c-1.996,0-2.865,1.855-3.639,1.855c-0.659,0-0.869-0.415-0.869-0.928
		c0-1.75,2.935-4.837,6.529-4.837c3.169,0,6.152,2.523,7.866,2.523c0.398,0,0.752-0.153,0.752-0.361c0-0.62-1.386-0.671-3.078-2.059
		c-1.808-1.443-4.012-2.826-6.269-2.826c-2.982,0-5.143,2.007-5.59,3.084c-0.375,0.875-0.727,1.441-1.291,1.441
		c-0.729,0-0.87-0.722-0.87-1.491c0-1.958,2.913-7.204,7.914-7.204c3.478,0,6.414,2.725,8.946,5.349
		c0.614,0.874,1.835,1.183,2.702,1.237c0.987,0.052,2.489,0.305,2.489,1.695c0,2.833-4.883,4.272-9.018,7.36
		c-3.779,2.825-5.33,5.657-5.33,11.673c0,5.2,2.304,10.978,7.75,10.978c5.049,0,7.045-5.371,7.045-10.208
		c0-6.839-1.221-9.307-4.837-11.829c-0.353-0.259-0.493-0.413-0.493-0.977c0-0.464,0.306-0.771,0.656-0.876
		c0.211-0.053,0.425-0.053,0.61-0.053c5.614,0,9.794,6.279,9.794,13.069c0,7.872-4.392,13.733-13.479,13.733
		C96.021,85.456,92.052,78.718,92.052,71.723"/>
	<path fill="#FFFFFF" d="M59.74,93.638c-0.448,0-0.705-0.238-1.105-0.828c-1.104-1.652-1.572-1.816-5.682-1.816
		c-2.866,0-3.101,0.081-3.101,1.615v5.871h4.886c1.151,0,1.69,0.437,1.69,1.344c0,0.865-0.586,1.337-1.69,1.337h-4.016
		c-0.188,0-0.399,0.041-0.563,0.116c-0.259,0.117-0.306,0.354-0.306,1.187v7.841c0,1.06,0,1.257,0.119,1.534
		c0.164,0.312,0.515,0.51,0.822,0.51h0.915c0.587,0,1.033,0.511,1.033,1.103c0,0.869-0.493,1.142-1.948,1.142h-7.233
		c-1.339,0-1.809-0.272-1.809-1.142c0-0.592,0.47-1.103,1.009-1.103h0.8c0.257,0,0.54-0.197,0.657-0.51
		c0.093-0.277,0.117-0.475,0.117-1.534V92.609c0-1.018-0.024-1.258-0.117-1.534c-0.117-0.316-0.4-0.51-0.657-0.51h-0.8
		c-0.54,0-0.938-0.514-0.938-1.101c0-0.871,0.422-1.149,1.738-1.149h14.442c0.633,0,0.751,0.046,0.963,0.163
		c0.211,0.115,0.422,0.434,0.61,0.906l1.033,2.676c0.118,0.317,0.165,0.473,0.165,0.631C60.772,93.206,60.327,93.638,59.74,93.638"
		/>
	<path fill="#FFFFFF" d="M97.314,112.348c-4.439,0-7.094-4.018-7.094-10.754c0-6.853,2.655-11.029,7.022-11.029
		c4.369,0,7.116,4.215,7.116,10.988C104.359,108.168,101.635,112.348,97.314,112.348 M72.186,112.348
		c-4.439,0-7.092-4.018-7.092-10.754c0-6.853,2.653-11.029,7.021-11.029c4.369,0,7.116,4.215,7.116,10.988
		C79.23,108.168,76.531,112.348,72.186,112.348 M97.29,87.767c-6.6,0-11.179,3.726-12.541,9.832
		c-1.315-6.082-5.965-9.832-12.588-9.832c-7.937,0-12.963,5.355-12.963,13.786c0,8.236,5.073,13.629,12.871,13.629
		c6.669,0,11.295-3.756,12.657-9.882c1.314,6.08,5.941,9.882,12.47,9.882c7.983,0,13.079-5.393,13.079-13.826
		C110.275,93.088,105.18,87.767,97.29,87.767"/>
	<path fill="#FFFFFF" d="M121.175,90.371c-1.223,0-2.35,0.312-2.961,0.787c-0.494,0.389-0.588,0.864-0.588,3.108v14.807
		c0,1.58,0.049,1.901,0.281,2.291c0.425,0.592,1.622,0.984,3.102,0.984c4.861,0,7.655-4.018,7.655-10.954
		C128.664,94.466,125.87,90.371,121.175,90.371 M130.05,112.466c-2.323,1.854-5.354,2.716-9.745,2.716
		c-4.087,0-8.783-0.904-10.146-1.968c-0.282-0.199-0.492-0.55-0.492-0.866c0-0.59,0.398-0.984,1.079-1.062
		c1.223-0.201,1.29-0.282,1.339-1.185l0.047-0.868V93.757l-0.047-0.869c-0.049-1.027-0.165-1.181-1.222-1.264
		c-0.749-0.033-1.196-0.429-1.196-1.019c0-0.354,0.21-0.71,0.515-0.948c1.386-1.064,5.987-1.891,10.45-1.891
		c4.72,0,7.961,1.065,10.358,3.51c2.324,2.318,3.567,5.904,3.567,10.159C134.558,106.206,132.962,110.136,130.05,112.466"/>
	<path fill="#FFFFFF" d="M142.92,115.182c-1.457,0-2.985-0.197-4.133-0.551c-0.564-0.155-0.636-0.196-0.869-0.196
		c-0.33,0-0.471,0.078-0.824,0.395c-0.351,0.276-0.562,0.353-0.914,0.353c-0.659,0-0.987-0.353-1.225-1.3l-0.983-3.936
		c-0.069-0.234-0.118-0.592-0.118-0.793c0-0.704,0.565-1.214,1.27-1.214c0.397,0,0.751,0.193,0.985,0.51l0.541,0.783
		c1.386,1.937,3.592,3.115,5.849,3.115c2.559,0,4.271-1.42,4.271-3.509c0-1.058-0.42-2.01-1.244-2.949
		c-0.867-0.945-1.925-1.812-4.178-3.388c-3.759-2.604-4.11-2.836-5.308-4.254c-0.987-1.143-1.504-2.558-1.504-4.142
		c0-3.819,2.912-6.34,7.257-6.34c1.079,0,2.23,0.122,3.381,0.354c0.118,0.043,0.423,0.12,0.988,0.241
		c0.188,0.038,0.375,0.078,0.538,0.078c0.282,0,0.541-0.124,0.917-0.356c0.399-0.277,0.493-0.316,0.822-0.316
		c0.586,0,0.938,0.397,1.104,1.106l0.938,4.25c0.071,0.196,0.071,0.436,0.071,0.558c0,0.509-0.471,0.939-1.128,0.939
		c-0.445,0-0.682-0.153-1.032-0.668c-0.893-1.343-1.058-1.499-1.878-2.125c-1.081-0.833-2.42-1.262-3.712-1.262
		c-1.81,0-2.983,1.026-2.983,2.641c0,0.587,0.116,1.177,0.423,1.616c0.401,0.589,1.034,1.215,1.81,1.812
		c0.47,0.348,1.103,0.783,1.927,1.372c3.122,2.169,4.132,2.957,5.399,4.256c1.341,1.378,2.139,3.348,2.139,5.354
		C151.516,112.189,148.109,115.182,142.92,115.182"/>
	<path fill="#FFFFFF" d="M137.682,80.172l-0.163,0.437l-1.223,2.992c-0.375,0.982-0.704,1.182-1.926,1.182h-15.145
		c-1.318,0-1.738-0.273-1.738-1.147c0-0.586,0.42-1.057,0.963-1.057h0.775c0.255,0,0.586-0.238,0.655-0.514
		c0.118-0.272,0.165-0.472,0.165-1.455V62.805c0-1.065-0.047-1.227-0.165-1.539c-0.069-0.316-0.4-0.511-0.655-0.511h-0.775
		c-0.588,0-1.059-0.472-1.059-1.102c0-0.869,0.471-1.141,1.834-1.141h7.277c1.408,0,1.879,0.272,1.879,1.141
		c0,0.629-0.471,1.102-1.032,1.102h-0.847c-0.354,0-0.702,0.195-0.82,0.511c-0.141,0.275-0.141,0.512-0.141,1.539v16.542
		c0,1.734,0.092,2.128,0.562,2.4c0.398,0.275,1.129,0.316,3.852,0.316c2.373,0,2.817,0,3.475-0.272
		c0.659-0.28,1.176-0.789,2.114-2.126c0.494-0.676,0.729-0.833,1.198-0.833c0.588,0,1.057,0.395,1.057,0.87
		C137.8,79.858,137.775,80.011,137.682,80.172"/>
	<path fill="#FFFFFF" d="M157.621,81.236l-1.126,2.64c-0.284,0.669-0.494,0.828-1.106,0.865l-0.751,0.042h-15.452
		c-1.339,0-1.761-0.273-1.761-1.147c0-0.586,0.422-1.057,0.985-1.057h0.775c0.281,0,0.562-0.238,0.633-0.514
		c0.116-0.316,0.165-0.514,0.165-1.579V62.882c0-1.027-0.049-1.22-0.165-1.539c-0.071-0.353-0.376-0.589-0.633-0.589h-0.775
		c-0.563,0-1.034-0.512-1.034-1.102c0-0.869,0.471-1.141,1.81-1.141h15.171c0.82,0,1.148,0.194,1.386,0.787l1.124,2.913
		c0.12,0.315,0.214,0.55,0.214,0.671c0,0.47-0.469,0.908-1.079,0.908c-0.143,0-0.307-0.041-0.425-0.121
		c-0.188-0.076-0.399-0.236-0.538-0.394c-0.049-0.078-0.211-0.316-0.494-0.67c-0.775-1.142-1.526-1.415-4.016-1.415h-2.629
		c-2.161,0-2.397,0.273-2.397,2.363v5.04h5.026c1.148,0,1.549,0.353,1.549,1.302c0,0.904-0.517,1.376-1.549,1.376h-3.054
		c-1.148,0-1.433,0.039-1.62,0.157c-0.236,0.158-0.353,0.55-0.353,1.419v6.218c0,2.092,0.116,2.525,0.753,2.76
		c0.491,0.196,1.289,0.277,3.379,0.277c1.976,0,2.983-0.04,3.665-0.158c0.892-0.154,1.645-0.749,2.443-1.893
		c0.469-0.706,0.658-0.862,1.173-0.862c0.633,0,1.033,0.391,1.033,0.944C157.948,80.328,157.854,80.684,157.621,81.236"/>
	<path fill="#FFFFFF" d="M91.842,82.493h-0.776c-0.281,0-0.586-0.198-0.658-0.475c-0.14-0.318-0.164-0.546-0.164-1.576V62.761
		c0-0.984,0.023-1.265,0.164-1.535c0.071-0.282,0.376-0.514,0.658-0.514h0.776c0.562,0,1.033-0.472,1.033-1.106
		c0-0.86-0.471-1.14-1.809-1.14h-7.163c-1.339,0-1.809,0.28-1.809,1.14c0,0.634,0.47,1.106,1.058,1.106h0.751
		c0.282,0,0.587,0.194,0.705,0.514c0.117,0.27,0.117,0.51,0.117,1.535v5.827h-8.547v-5.827c0-0.984,0.045-1.265,0.116-1.535
		c0.118-0.282,0.446-0.514,0.751-0.514h0.752c0.541,0,0.987-0.472,0.987-1.106c0-0.86-0.446-1.14-1.739-1.14H64.037
		c-1.056,0-1.503,0.314-1.503,1.101c0,0.633,0.399,1.025,1.267,1.103c0.941,0.12,1.387,0.434,1.387,1.021
		c0,0.239-0.047,0.555-0.164,0.95l-4.651,15.083l-4.697-14.411c-0.305-0.944-0.375-1.303-0.375-1.653
		c0-0.715,0.257-0.947,1.338-1.066c0.869-0.119,1.245-0.434,1.245-1.064c0-0.709-0.422-1.062-1.339-1.062h-7.702
		c-0.917,0-1.387,0.434-1.387,1.184c0,0.589,0.306,0.862,1.152,1.062c0.892,0.232,1.197,0.434,1.456,1.023
		c0.07,0.156,0.141,0.475,0.305,0.906l1.808,5.277l-3.664,10.199l-5.306-14.804l-0.329-0.906c-0.119-0.316-0.141-0.596-0.141-0.866
		c0-0.634,0.352-0.906,1.221-0.986c1.01-0.081,1.409-0.354,1.409-1.026c0-0.709-0.399-1.062-1.292-1.062H35.95
		c-0.892,0-1.338,0.353-1.338,1.023c0,0.631,0.282,0.906,1.102,1.064c1.269,0.272,1.457,0.474,2.044,2.087l7.727,20.715
		c0.54,1.494,1.103,1.969,2.254,1.969c0.493,0,1.01-0.195,1.338-0.437c0.305-0.314,0.423-0.587,0.774-1.532l3.875-10.789
		l3.616,10.789c0.47,1.459,1.057,1.969,2.231,1.969c1.198,0,1.714-0.551,2.301-2.478l6.248-20.206
		c0.446-1.389,0.728-1.757,1.549-1.929h0.212c0.283,0,0.54,0.194,0.657,0.514c0.118,0.27,0.118,0.465,0.118,1.535v17.681
		c0,1.063,0,1.258-0.118,1.576c-0.07,0.277-0.375,0.475-0.657,0.475h-0.799c-0.539,0-1.009,0.509-1.009,1.102
		c0,0.865,0.47,1.143,1.808,1.143h7.162c1.269,0,1.692-0.278,1.692-1.105c0-0.631-0.399-1.14-0.94-1.14h-0.752
		c-0.305,0-0.633-0.198-0.751-0.475c-0.071-0.318-0.116-0.546-0.116-1.576v-7.205c0-1.812,0.163-1.967,1.619-1.967h5.355
		c0.774,0,1.173,0.114,1.385,0.354c0.188,0.235,0.188,0.391,0.188,1.847v6.971c0,1.03,0,1.258-0.117,1.576
		c-0.118,0.277-0.423,0.475-0.705,0.475h-0.751c-0.541,0-1.034,0.509-1.034,1.102c0,0.865,0.446,1.143,1.785,1.143h7.163
		c1.385,0,1.809-0.278,1.809-1.143C92.875,83.002,92.451,82.493,91.842,82.493"/>
	<path fill="#FFFFFF" d="M150.175,117.76c3.359,0,6.083,2.725,6.083,6.077c0,3.357-2.724,6.08-6.083,6.08H43.252
		c-3.357,0-6.058-2.723-6.058-6.08c0-3.353,2.701-6.077,6.058-6.077H150.175 M146.699,121.686c0-0.041-0.024-0.112-0.024-0.163
		l-0.326-0.84c-0.049-0.123-0.094-0.178-0.143-0.21c-0.045-0.039-0.068-0.051-0.213-0.051h-4.365c-0.259,0-0.306,0.03-0.399,0.261
		l-0.282,0.783c-0.047,0.126-0.071,0.179-0.071,0.22c0,0.133,0.142,0.243,0.284,0.243c0.116,0,0.188-0.048,0.304-0.253l0.094-0.103
		c0.26-0.373,0.4-0.465,0.893-0.465c0.587,0,0.609,0.02,0.636,0.465v4.492c0,0.267,0,0.322-0.049,0.395
		c-0.022,0.078-0.116,0.132-0.188,0.132h-0.283c-0.14,0-0.256,0.13-0.256,0.281c0,0.228,0.116,0.296,0.492,0.296h1.996
		c0.353,0,0.469-0.068,0.469-0.296c0-0.151-0.116-0.281-0.257-0.281h-0.283c-0.094,0-0.162-0.054-0.188-0.132
		c-0.022-0.072-0.022-0.128-0.022-0.395v-4.48c0-0.436,0.049-0.484,0.517-0.484c0.376,0,0.517,0.019,0.635,0.081
		c0.141,0.068,0.259,0.192,0.375,0.37c0,0.021,0.047,0.073,0.096,0.144c0.117,0.16,0.188,0.222,0.305,0.222
		C146.583,121.917,146.699,121.808,146.699,121.686 M128.312,125.974c0-0.14-0.118-0.243-0.259-0.243
		c-0.143,0-0.188,0.044-0.304,0.223c-0.213,0.302-0.4,0.448-0.637,0.486c-0.162,0.028-0.443,0.041-0.938,0.041
		c-0.542,0-0.73-0.021-0.869-0.068c-0.165-0.062-0.188-0.172-0.188-0.711v-1.599c0-0.224,0.022-0.322,0.094-0.367
		c0.045-0.029,0.116-0.038,0.398-0.038h0.798c0.261,0,0.377-0.117,0.377-0.352c0-0.245-0.094-0.335-0.377-0.335h-1.29v-1.295
		c0-0.534,0.045-0.607,0.61-0.607h0.68c0.637,0,0.824,0.073,1.034,0.364c0.069,0.092,0.094,0.152,0.116,0.172
		c0.047,0.041,0.094,0.085,0.142,0.1c0.025,0.026,0.071,0.03,0.118,0.03c0.141,0,0.257-0.111,0.257-0.229
		c0-0.035,0-0.092-0.045-0.172l-0.281-0.752c-0.072-0.149-0.144-0.2-0.354-0.2h-3.899c-0.352,0-0.468,0.071-0.468,0.294
		c0,0.151,0.116,0.284,0.257,0.284h0.211c0.049,0,0.143,0.056,0.165,0.149c0.022,0.08,0.022,0.129,0.022,0.396v4.52
		c0,0.273,0,0.322-0.022,0.402c-0.022,0.07-0.094,0.13-0.165,0.13h-0.211c-0.141,0-0.257,0.124-0.257,0.275
		c0,0.228,0.116,0.296,0.468,0.296h3.969l0.188-0.012c0.166-0.009,0.213-0.048,0.284-0.218l0.281-0.682
		C128.288,126.12,128.312,126.025,128.312,125.974 M110.418,126.888c0-0.197-0.094-0.278-0.33-0.296
		c-0.14-0.021-0.211-0.03-0.258-0.078c-0.094-0.083-0.21-0.236-0.353-0.448l-1.927-2.914l1.2-1.566
		c0.188-0.245,0.373-0.416,0.444-0.484c0.095-0.045,0.211-0.094,0.354-0.121c0.257-0.06,0.328-0.125,0.328-0.286
		c0-0.18-0.116-0.271-0.328-0.271h-1.667c-0.211,0-0.354,0.108-0.354,0.294c0,0.189,0.116,0.272,0.423,0.303
		c0.165,0.018,0.236,0.071,0.236,0.163c0,0.036-0.024,0.077-0.049,0.118l-0.212,0.223l-1.478,1.893
		c-0.071,0.089-0.117,0.181-0.117,0.267c0,0.065,0.022,0.137,0.117,0.271l1.948,2.92c0.165,0.228,0.282,0.296,0.541,0.296h1.127
		C110.298,127.169,110.418,127.064,110.418,126.888 M106.824,126.888c0-0.166-0.116-0.296-0.259-0.296h-0.188
		c-0.095,0-0.164-0.054-0.19-0.132c-0.022-0.072-0.022-0.121-0.022-0.395v-4.543c0-0.264,0-0.313,0.022-0.395
		c0.026-0.072,0.096-0.128,0.19-0.128h0.188c0.165,0,0.259-0.124,0.259-0.284c0-0.223-0.094-0.294-0.446-0.294h-1.831
		c-0.353,0-0.47,0.071-0.47,0.294c0,0.16,0.117,0.284,0.26,0.284h0.21c0.069,0,0.141,0.056,0.163,0.128
		c0.049,0.072,0.049,0.143,0.049,0.395v4.543c0,0.267,0,0.322-0.049,0.395c-0.022,0.078-0.094,0.132-0.163,0.132h-0.21
		c-0.143,0-0.26,0.13-0.26,0.281c0,0.228,0.117,0.296,0.47,0.296h1.831C106.708,127.169,106.824,127.101,106.824,126.888
		 M91.536,126.866c0-0.102-0.07-0.191-0.118-0.235c-0.069-0.032-0.094-0.038-0.304-0.078c-0.259-0.063-0.353-0.13-0.587-0.545
		l-1.34-2.133c0.917-0.248,1.387-0.833,1.387-1.697c0-1.24-0.893-1.894-2.608-1.894c-0.986,0-2.207,0.23-2.535,0.492
		c-0.048,0.06-0.095,0.148-0.095,0.243c0,0.163,0.095,0.252,0.306,0.26c0.257,0.021,0.304,0.075,0.304,0.347v4.44
		c0,0.267,0,0.322-0.023,0.395c-0.047,0.078-0.118,0.132-0.188,0.132h-0.189c-0.141,0-0.281,0.13-0.281,0.281
		c0,0.228,0.117,0.296,0.47,0.296h1.831c0.354,0,0.47-0.068,0.47-0.281c0-0.166-0.116-0.296-0.258-0.296h-0.212
		c-0.069,0-0.141-0.054-0.188-0.132c0-0.072-0.022-0.128-0.022-0.395v-3.694l0.022-0.48c0-0.418,0.047-0.62,0.166-0.741
		c0.116-0.131,0.305-0.203,0.54-0.203c0.61,0,1.01,0.508,1.01,1.294c0,0.79-0.306,1.175-1.01,1.264
		c-0.257,0.033-0.375,0.122-0.375,0.327c0,0.1,0.046,0.24,0.188,0.464l1.526,2.578c0.141,0.228,0.258,0.296,0.517,0.296h1.174
		C91.395,127.169,91.536,127.064,91.536,126.866 M68.546,124.458h1.501l-0.75-2.377L68.546,124.458 M72.35,127.169h-2.136
		c-0.189,0-0.283-0.117-0.283-0.272c0-0.193,0.094-0.287,0.376-0.305c0.21-0.021,0.305-0.078,0.305-0.241
		c0-0.08-0.024-0.188-0.048-0.275l-0.188-0.575l-0.047-0.145c-0.047-0.163-0.116-0.212-0.352-0.212h-1.315
		c-0.166,0-0.235,0.022-0.282,0.049c-0.048,0.021-0.07,0.062-0.095,0.114c0,0.012-0.023,0.071-0.047,0.193l-0.21,0.575
		c-0.024,0.112-0.047,0.216-0.047,0.275c0,0.138,0.094,0.211,0.281,0.241c0.283,0.034,0.352,0.099,0.352,0.281
		c0,0.179-0.118,0.296-0.329,0.296h-1.432c-0.236,0-0.352-0.083-0.352-0.261c0-0.164,0.094-0.258,0.305-0.282
		c0.163-0.028,0.211-0.064,0.281-0.138c0.047-0.066,0.118-0.23,0.188-0.413l1.714-5.151c0.165-0.513,0.306-0.641,0.611-0.641
		s0.469,0.154,0.611,0.641l1.714,5.029c0.164,0.478,0.21,0.535,0.446,0.608l0.141,0.036c0.117,0.032,0.187,0.138,0.187,0.268
		C72.702,127.064,72.584,127.169,72.35,127.169 M53.938,126.897c0-0.152-0.118-0.287-0.258-0.287h-0.165
		c-0.095,0-0.164-0.048-0.188-0.121c-0.046-0.076-0.046-0.138-0.046-0.401v-4.564c0-0.264,0-0.322,0.046-0.403
		c0.024-0.069,0.094-0.131,0.188-0.131h0.165c0.141,0,0.235-0.121,0.235-0.284c0-0.211-0.094-0.282-0.399-0.282h-1.151
		c-0.164,0-0.258,0.038-0.329,0.149l-0.07,0.122l-1.738,2.73l-1.832-2.73c-0.141-0.209-0.165-0.233-0.234-0.256
		c-0.048-0.004-0.094-0.016-0.165-0.016H46.94c-0.329,0-0.445,0.071-0.445,0.282c0,0.163,0.117,0.284,0.257,0.284h0.188
		c0.07,0,0.164,0.062,0.188,0.131c0.023,0.081,0.023,0.14,0.023,0.403v4.564c0,0.252,0,0.325-0.023,0.401
		c-0.024,0.073-0.118,0.121-0.188,0.121h-0.188c-0.141,0-0.257,0.135-0.257,0.287c0,0.204,0.117,0.272,0.445,0.272h1.269
		c0.352,0,0.468-0.068,0.468-0.272c0-0.152-0.116-0.287-0.281-0.287h-0.188c-0.071,0-0.165-0.048-0.188-0.121
		c-0.023-0.076-0.023-0.138-0.023-0.401v-3.716l1.69,2.521c0.141,0.191,0.188,0.23,0.305,0.23c0.118,0,0.235-0.078,0.33-0.23
		l1.551-2.464v3.658c0,0.27,0,0.325-0.048,0.401c-0.024,0.073-0.094,0.121-0.166,0.121h-0.188c-0.14,0-0.258,0.135-0.258,0.287
		c0,0.204,0.095,0.272,0.446,0.272h1.856C53.821,127.169,53.938,127.101,53.938,126.897"/>
	<path fill="#FFFFFF" d="M68.546,124.367h1.501l-0.75-2.376L68.546,124.367 M72.35,127.081h-2.136c-0.189,0-0.283-0.118-0.283-0.272
		c0-0.193,0.094-0.286,0.376-0.307c0.21-0.021,0.305-0.076,0.305-0.24c0-0.079-0.024-0.188-0.048-0.274l-0.188-0.577l-0.047-0.145
		c-0.047-0.162-0.116-0.21-0.352-0.21h-1.315c-0.166,0-0.235,0.021-0.282,0.048c-0.048,0.021-0.07,0.063-0.095,0.114
		c0,0.013-0.023,0.071-0.047,0.192l-0.21,0.577c-0.024,0.111-0.047,0.216-0.047,0.274c0,0.138,0.094,0.212,0.281,0.24
		c0.283,0.035,0.352,0.099,0.352,0.283c0,0.178-0.118,0.296-0.329,0.296h-1.432c-0.236,0-0.352-0.083-0.352-0.262
		c0-0.163,0.094-0.257,0.305-0.282c0.163-0.027,0.211-0.063,0.281-0.138c0.047-0.066,0.118-0.229,0.188-0.412l1.714-5.151
		c0.165-0.514,0.306-0.642,0.611-0.642s0.469,0.155,0.611,0.642l1.714,5.029c0.164,0.478,0.21,0.534,0.446,0.608l0.141,0.036
		c0.117,0.032,0.187,0.138,0.187,0.269C72.702,126.975,72.584,127.081,72.35,127.081"/>
</g>
</svg>
