<?xml version="1.0" encoding="utf-8"?>
<!-- Generator: Adobe Illustrator 16.0.4, SVG Export Plug-In . SVG Version: 6.00 Build 0)  -->
<!DOCTYPE svg PUBLIC "-//W3C//DTD SVG 1.1//EN" "http://www.w3.org/Graphics/SVG/1.1/DTD/svg11.dtd">
<svg version="1.1" id="Layer_1" xmlns="http://www.w3.org/2000/svg" xmlns:xlink="http://www.w3.org/1999/xlink" x="0px" y="0px"
	 width="197.334px" height="58.667px" viewBox="0 0 197.334 58.667" enable-background="new 0 0 197.334 58.667"
	 xml:space="preserve">
<g>
	<g>
		<path fill="#FFFFFF" d="M195.497,17.445c0-1.9-0.786-3.729-2.207-5.154c-1.526-1.527-3.616-2.404-5.731-2.404
			c-4.17,0-7.562,3.39-7.562,7.558c0,4.051,1.931,6.232,7.13,8.049c5.411,2.037,7.841,4.471,7.841,7.881
			c0,4.257-3.464,7.724-7.719,7.724c-2.017,0-3.946-0.834-5.429-2.338c-1.651-1.673-2.601-4.05-2.735-6.759l-1.684,0.006
			c0.133,3.152,1.265,5.949,3.22,7.935c1.801,1.831,4.152,2.838,6.628,2.838c2.514,0,4.869-0.978,6.647-2.756
			c1.774-1.771,2.755-4.134,2.755-6.649c0-5.466-5.112-8.018-8.955-9.464c-4.501-1.575-6.014-3.205-6.014-6.466
			c0-1.568,0.608-3.044,1.72-4.152c1.111-1.109,2.585-1.721,4.156-1.721c1.668,0,3.324,0.695,4.539,1.912
			c1.108,1.103,1.714,2.51,1.714,3.961H195.497L195.497,17.445z"/>
		<path fill="#FFFFFF" d="M138.607,40.721c-7.984,0-14.462-6.479-14.462-14.467c0-7.984,6.478-14.46,14.462-14.46
			c5.724,0,10.672,3.324,13.014,8.148l2.006-0.034c-2.477-5.854-8.265-9.956-15.02-9.956c-9.001,0-16.301,7.299-16.301,16.301
			c0,9.005,7.3,16.304,16.301,16.304c6.785,0,12.603-4.143,15.056-10.034l-2.042,0.047
			C149.279,37.392,144.331,40.721,138.607,40.721z"/>
		<path fill="#FFFFFF" d="M119.532,18.76c-2.714-5.232-8.173-8.807-14.473-8.807c-9.005,0-16.306,7.299-16.306,16.301
			c0,9.005,7.301,16.304,16.306,16.304c6.3,0,11.759-3.574,14.473-8.811v8.899h1.843V10.782h-1.843V18.76z M105.06,40.721
			c-7.984,0-14.467-6.479-14.467-14.467c0-7.984,6.482-14.46,14.467-14.46s14.46,6.476,14.46,14.46
			C119.52,34.241,113.044,40.721,105.06,40.721z"/>
		<path fill="#FFFFFF" d="M75.186,10.063c-5.109,0-9.47,3.16-11.261,7.63c-1.792-4.47-6.152-7.63-11.262-7.63
			c-4.379,0-8.208,2.331-10.34,5.811v-5.091h-1.837v31.864h1.837V21.098c0.546-5.225,4.967-9.3,10.34-9.3
			c5.417,0,9.846,4.136,10.344,9.42v21.428h1.836V21.219c0.494-5.285,4.929-9.42,10.344-9.42c5.56,0,10.091,4.368,10.371,9.863
			h-0.034v20.985h1.839V21.661h-0.075C87.004,15.207,81.704,10.063,75.186,10.063z"/>
		<polygon fill="#FFFFFF" points="165.701,39.714 154.092,10.787 152.158,10.787 164.709,42.167 159.984,53.816 161.995,53.89 
			179.518,10.787 177.435,10.787 		"/>
		<polygon fill="#FFFFFF" points="183.492,3.661 182.69,1.191 181.883,3.661 179.267,3.661 181.385,5.196 180.584,7.666 
			182.685,6.136 184.794,7.672 183.992,5.193 186.1,3.661 		"/>
		<polygon fill="#FFFFFF" points="21.031,22.519 16.978,10.086 12.932,22.519 -0.246,22.519 10.43,30.25 6.388,42.688 
			16.963,34.991 27.601,42.724 23.539,30.228 34.166,22.519 		"/>
	</g>
</g>
</svg>
