<?xml version="1.0" encoding="utf-8"?>
<!-- Generator: Adobe Illustrator 16.0.4, SVG Export Plug-In . SVG Version: 6.00 Build 0)  -->
<!DOCTYPE svg PUBLIC "-//W3C//DTD SVG 1.1//EN" "http://www.w3.org/Graphics/SVG/1.1/DTD/svg11.dtd">
<svg version="1.1" id="Layer_1" xmlns="http://www.w3.org/2000/svg" xmlns:xlink="http://www.w3.org/1999/xlink" x="0px" y="0px"
	 width="30px" height="31.312px" viewBox="0 0 30 31.312" enable-background="new 0 0 30 31.312" xml:space="preserve">
<g>
	<g>
		<path fill-rule="evenodd" clip-rule="evenodd" fill="#FFFFFF" d="M21.845,16.766l-4.698,4.697l-2.482-2.484
			c-0.275-0.274-0.72-0.274-0.993,0c-0.274,0.275-0.274,0.719,0,0.992l2.835,2.835c0.031,0.062,0.063,0.123,0.115,0.175
			c0.145,0.145,0.336,0.208,0.525,0.2c0.189,0.008,0.382-0.056,0.526-0.2c0.052-0.051,0.083-0.113,0.116-0.174l5.048-5.049
			c0.274-0.272,0.274-0.717,0-0.992C22.562,16.491,22.119,16.491,21.845,16.766z M17.885,7.701c-6.518,0-11.803,5.285-11.803,11.803
			c0,6.52,5.285,11.803,11.803,11.803c6.52,0,11.803-5.283,11.803-11.803C29.688,12.986,24.404,7.701,17.885,7.701z M17.885,29.832
			c-5.702,0-10.327-4.624-10.327-10.328c0-5.702,4.625-10.327,10.327-10.327c5.704,0,10.328,4.625,10.328,10.327
			C28.213,25.208,23.589,29.832,17.885,29.832z"/>
	</g>
</g>
</svg>
