<?xml version="1.0" encoding="utf-8"?>
<!-- Generator: Adobe Illustrator 16.0.4, SVG Export Plug-In . SVG Version: 6.00 Build 0)  -->
<!DOCTYPE svg PUBLIC "-//W3C//DTD SVG 1.1//EN" "http://www.w3.org/Graphics/SVG/1.1/DTD/svg11.dtd">
<svg version="1.1" id="Layer_1" xmlns="http://www.w3.org/2000/svg" xmlns:xlink="http://www.w3.org/1999/xlink" x="0px" y="0px"
	 width="40px" height="40px" viewBox="0 0 40 40" enable-background="new 0 0 40 40" xml:space="preserve">
<circle fill="#69B545" cx="19.868" cy="20" r="20"/>
<g>
	<path fill="#FFFFFF" d="M8.687,9.218c0.403,0,0.746,0.059,1.029,0.176c0.283,0.118,0.513,0.272,0.69,0.465
		c0.177,0.193,0.307,0.412,0.388,0.659c0.081,0.247,0.122,0.502,0.122,0.768c0,0.258-0.041,0.513-0.122,0.762
		c-0.081,0.25-0.211,0.471-0.388,0.664s-0.408,0.348-0.69,0.465s-0.626,0.176-1.029,0.176H7.197v2.311H5.78V9.218H8.687z
		 M8.298,12.25c0.163,0,0.319-0.012,0.469-0.036c0.15-0.024,0.283-0.07,0.397-0.14c0.114-0.069,0.206-0.167,0.275-0.293
		c0.069-0.126,0.104-0.292,0.104-0.496s-0.035-0.37-0.104-0.497c-0.069-0.126-0.161-0.224-0.275-0.293
		c-0.115-0.069-0.247-0.116-0.397-0.14s-0.307-0.036-0.469-0.036H7.197v1.931H8.298z"/>
	<path fill="#FFFFFF" d="M11.836,11.682c0.132-0.199,0.301-0.358,0.505-0.479c0.205-0.12,0.435-0.206,0.69-0.257
		c0.256-0.051,0.513-0.077,0.772-0.077c0.234,0,0.472,0.017,0.713,0.05s0.46,0.098,0.659,0.194c0.199,0.097,0.361,0.23,0.487,0.402
		s0.189,0.398,0.189,0.681v2.428c0,0.211,0.012,0.413,0.036,0.605s0.066,0.337,0.126,0.433h-1.299
		c-0.024-0.072-0.044-0.146-0.059-0.221s-0.025-0.152-0.031-0.23c-0.205,0.21-0.445,0.358-0.722,0.442
		c-0.277,0.084-0.56,0.126-0.848,0.126c-0.223,0-0.431-0.027-0.623-0.081s-0.361-0.138-0.505-0.253
		c-0.145-0.114-0.257-0.258-0.338-0.433c-0.081-0.174-0.122-0.382-0.122-0.623c0-0.265,0.047-0.483,0.14-0.654
		s0.213-0.309,0.361-0.411c0.147-0.103,0.316-0.179,0.505-0.23c0.19-0.051,0.381-0.091,0.573-0.122s0.382-0.054,0.569-0.072
		c0.186-0.018,0.352-0.045,0.496-0.081s0.259-0.089,0.343-0.158c0.084-0.069,0.124-0.17,0.118-0.302c0-0.138-0.022-0.248-0.068-0.33
		c-0.045-0.081-0.105-0.144-0.181-0.189c-0.075-0.045-0.162-0.075-0.262-0.09c-0.099-0.015-0.206-0.022-0.32-0.022
		c-0.252,0-0.451,0.054-0.596,0.163c-0.144,0.108-0.229,0.289-0.252,0.542H11.61C11.628,12.13,11.704,11.88,11.836,11.682z
		 M14.368,13.492c-0.081,0.027-0.168,0.049-0.262,0.067s-0.191,0.033-0.293,0.045s-0.205,0.027-0.307,0.045
		c-0.097,0.018-0.191,0.042-0.285,0.072c-0.093,0.03-0.174,0.071-0.244,0.122c-0.069,0.051-0.125,0.116-0.167,0.194
		c-0.042,0.078-0.063,0.178-0.063,0.298c0,0.114,0.021,0.21,0.063,0.289c0.042,0.079,0.1,0.14,0.172,0.185
		c0.072,0.045,0.156,0.077,0.252,0.095s0.196,0.027,0.298,0.027c0.253,0,0.448-0.042,0.587-0.126
		c0.138-0.084,0.24-0.185,0.307-0.302c0.066-0.117,0.107-0.236,0.122-0.356c0.015-0.121,0.022-0.217,0.022-0.289v-0.478
		C14.517,13.427,14.449,13.464,14.368,13.492z"/>
	<path fill="#FFFFFF" d="M18.569,17.052c-0.247,0.163-0.589,0.244-1.029,0.244c-0.132,0-0.263-0.004-0.393-0.013
		c-0.129-0.009-0.26-0.02-0.393-0.032v-1.056c0.121,0.012,0.244,0.024,0.37,0.036c0.126,0.012,0.253,0.015,0.379,0.009
		c0.168-0.018,0.293-0.084,0.375-0.199C17.96,15.927,18,15.8,18,15.662c0-0.102-0.018-0.199-0.054-0.289l-1.633-4.377h1.363
		l1.056,3.195h0.018l1.02-3.195h1.326l-1.949,5.244C19.008,16.619,18.816,16.89,18.569,17.052z"/>
	<path fill="#FFFFFF" d="M24.57,9.218c0.402,0,0.745,0.059,1.028,0.176c0.283,0.118,0.513,0.272,0.69,0.465
		c0.178,0.193,0.307,0.412,0.388,0.659c0.082,0.247,0.122,0.502,0.122,0.768c0,0.258-0.04,0.513-0.122,0.762
		c-0.081,0.25-0.21,0.471-0.388,0.664s-0.407,0.348-0.69,0.465s-0.626,0.176-1.028,0.176h-1.489v2.311h-1.418V9.218H24.57z
		 M24.182,12.25c0.162,0,0.319-0.012,0.47-0.036c0.15-0.024,0.282-0.07,0.396-0.14s0.206-0.167,0.275-0.293s0.104-0.292,0.104-0.496
		s-0.034-0.37-0.104-0.497s-0.161-0.224-0.275-0.293c-0.114-0.069-0.246-0.116-0.396-0.14s-0.308-0.036-0.47-0.036h-1.101v1.931
		H24.182z"/>
	<path fill="#FFFFFF" d="M27.72,11.682c0.132-0.199,0.301-0.358,0.505-0.479c0.205-0.12,0.435-0.206,0.69-0.257
		c0.256-0.051,0.513-0.077,0.771-0.077c0.235,0,0.473,0.017,0.713,0.05c0.241,0.033,0.461,0.098,0.659,0.194
		c0.198,0.097,0.361,0.23,0.487,0.402c0.127,0.171,0.189,0.398,0.189,0.681v2.428c0,0.211,0.012,0.413,0.036,0.605
		s0.066,0.337,0.127,0.433h-1.3c-0.024-0.072-0.044-0.146-0.059-0.221c-0.016-0.075-0.026-0.152-0.032-0.23
		c-0.204,0.21-0.445,0.358-0.722,0.442c-0.276,0.084-0.56,0.126-0.849,0.126c-0.223,0-0.43-0.027-0.622-0.081
		c-0.193-0.054-0.361-0.138-0.506-0.253c-0.145-0.114-0.257-0.258-0.339-0.433c-0.081-0.174-0.121-0.382-0.121-0.623
		c0-0.265,0.046-0.483,0.14-0.654c0.093-0.171,0.214-0.309,0.361-0.411c0.147-0.103,0.315-0.179,0.505-0.23
		c0.189-0.051,0.381-0.091,0.573-0.122s0.382-0.054,0.568-0.072s0.353-0.045,0.497-0.081c0.144-0.036,0.258-0.089,0.343-0.158
		c0.084-0.069,0.123-0.17,0.117-0.302c0-0.138-0.022-0.248-0.067-0.33c-0.046-0.081-0.105-0.144-0.181-0.189
		c-0.075-0.045-0.163-0.075-0.262-0.09c-0.1-0.015-0.206-0.022-0.32-0.022c-0.253,0-0.451,0.054-0.596,0.163
		s-0.229,0.289-0.253,0.542h-1.281C27.512,12.13,27.587,11.88,27.72,11.682z M30.251,13.492c-0.081,0.027-0.169,0.049-0.262,0.067
		c-0.094,0.018-0.191,0.033-0.293,0.045c-0.103,0.012-0.205,0.027-0.308,0.045c-0.096,0.018-0.19,0.042-0.284,0.072
		c-0.093,0.03-0.175,0.071-0.243,0.122c-0.069,0.051-0.125,0.116-0.167,0.194s-0.063,0.178-0.063,0.298
		c0,0.114,0.021,0.21,0.063,0.289c0.042,0.079,0.099,0.14,0.171,0.185c0.072,0.045,0.156,0.077,0.253,0.095s0.195,0.027,0.298,0.027
		c0.253,0,0.448-0.042,0.587-0.126c0.138-0.084,0.24-0.185,0.307-0.302s0.106-0.236,0.122-0.356
		c0.015-0.121,0.022-0.217,0.022-0.289v-0.478C30.399,13.427,30.332,13.464,30.251,13.492z"/>
	<path fill="#FFFFFF" d="M34.046,9.218v6.444h-1.281V9.218H34.046z"/>
	<path fill="#FFFFFF" d="M9.155,19.064v0.56H6.369v1.589h2.597v0.56H6.369v1.729h2.807v0.56H5.704v-4.998H9.155z"/>
	<path fill="#FFFFFF" d="M9.596,20.443h0.763l0.868,1.268l0.903-1.268h0.714l-1.246,1.666l1.4,1.953h-0.763l-1.008-1.498
		l-1.008,1.498H9.498l1.358-1.904L9.596,20.443z"/>
	<path fill="#FFFFFF" d="M15.671,21.073c-0.149-0.126-0.35-0.189-0.602-0.189c-0.214,0-0.394,0.04-0.539,0.12
		c-0.145,0.079-0.26,0.184-0.347,0.314s-0.148,0.281-0.186,0.451c-0.038,0.171-0.056,0.347-0.056,0.529
		c0,0.168,0.02,0.331,0.06,0.489c0.04,0.159,0.102,0.301,0.186,0.424c0.084,0.124,0.194,0.223,0.329,0.298
		c0.135,0.074,0.296,0.111,0.483,0.111c0.294,0,0.524-0.076,0.689-0.23s0.267-0.371,0.305-0.651h0.609
		c-0.065,0.448-0.232,0.794-0.5,1.036c-0.269,0.243-0.633,0.364-1.096,0.364c-0.275,0-0.519-0.045-0.731-0.133
		c-0.212-0.089-0.39-0.215-0.532-0.378c-0.143-0.164-0.25-0.358-0.322-0.585s-0.108-0.475-0.108-0.745s0.035-0.524,0.105-0.76
		s0.176-0.441,0.318-0.616c0.143-0.175,0.321-0.312,0.536-0.413c0.215-0.1,0.464-0.15,0.749-0.15c0.206,0,0.398,0.024,0.578,0.074
		c0.18,0.049,0.338,0.125,0.476,0.228c0.137,0.103,0.25,0.232,0.339,0.388c0.088,0.156,0.145,0.342,0.168,0.557h-0.616
		C15.919,21.377,15.821,21.199,15.671,21.073z"/>
	<path fill="#FFFFFF" d="M17.897,19.064v4.998h-0.595v-4.998H17.897z"/>
	<path fill="#FFFFFF" d="M21.257,24.062v-0.574h-0.014c-0.126,0.225-0.287,0.389-0.482,0.494c-0.196,0.104-0.427,0.157-0.693,0.157
		c-0.238,0-0.436-0.031-0.595-0.095c-0.159-0.062-0.287-0.152-0.385-0.27c-0.098-0.116-0.167-0.256-0.207-0.416
		c-0.04-0.161-0.059-0.34-0.059-0.536v-2.38h0.595v2.45c0,0.224,0.065,0.401,0.196,0.532c0.131,0.131,0.311,0.195,0.539,0.195
		c0.182,0,0.34-0.027,0.473-0.084c0.133-0.056,0.244-0.135,0.333-0.237c0.088-0.103,0.155-0.223,0.2-0.36
		c0.044-0.138,0.066-0.288,0.066-0.452v-2.044h0.595v3.619H21.257z"/>
	<path fill="#FFFFFF" d="M23.168,23.254c0.056,0.091,0.129,0.163,0.22,0.217c0.092,0.054,0.194,0.093,0.309,0.116
		s0.232,0.034,0.354,0.034c0.093,0,0.191-0.007,0.294-0.021s0.197-0.04,0.283-0.077c0.087-0.037,0.157-0.092,0.214-0.164
		c0.056-0.072,0.084-0.165,0.084-0.277c0-0.153-0.059-0.271-0.175-0.35c-0.117-0.079-0.263-0.144-0.438-0.192
		c-0.176-0.049-0.365-0.094-0.571-0.133c-0.205-0.04-0.396-0.096-0.57-0.168s-0.32-0.174-0.438-0.305
		c-0.116-0.131-0.175-0.312-0.175-0.546c0-0.183,0.041-0.338,0.122-0.469c0.082-0.13,0.188-0.237,0.315-0.318
		s0.273-0.143,0.434-0.182c0.161-0.04,0.321-0.06,0.479-0.06c0.206,0,0.395,0.018,0.567,0.053c0.173,0.035,0.325,0.096,0.459,0.182
		c0.133,0.086,0.238,0.203,0.318,0.35c0.079,0.147,0.126,0.331,0.14,0.549h-0.595c-0.01-0.116-0.04-0.213-0.091-0.29
		c-0.052-0.077-0.117-0.139-0.196-0.186s-0.167-0.081-0.263-0.102s-0.192-0.032-0.29-0.032c-0.089,0-0.179,0.007-0.27,0.021
		c-0.091,0.014-0.174,0.039-0.249,0.074c-0.074,0.035-0.135,0.082-0.182,0.14s-0.07,0.134-0.07,0.228
		c0,0.103,0.036,0.188,0.108,0.255c0.072,0.068,0.165,0.124,0.276,0.168c0.112,0.045,0.238,0.082,0.378,0.112
		c0.141,0.03,0.28,0.062,0.421,0.095c0.148,0.032,0.295,0.072,0.438,0.119c0.142,0.047,0.268,0.108,0.378,0.186
		c0.109,0.077,0.198,0.174,0.266,0.29c0.067,0.117,0.102,0.262,0.102,0.435c0,0.219-0.046,0.401-0.137,0.546s-0.21,0.261-0.356,0.35
		c-0.147,0.089-0.313,0.15-0.497,0.186c-0.185,0.035-0.368,0.053-0.55,0.053c-0.201,0-0.392-0.021-0.574-0.063
		c-0.182-0.042-0.343-0.11-0.482-0.206c-0.141-0.096-0.252-0.222-0.336-0.378s-0.131-0.347-0.141-0.57h0.595
		C23.081,23.052,23.111,23.163,23.168,23.254z"/>
	<path fill="#FFFFFF" d="M26.248,19.792v-0.728h0.595v0.728H26.248z M26.843,20.443v3.619h-0.595v-3.619H26.843z"/>
	<path fill="#FFFFFF" d="M28.761,24.062l-1.345-3.619h0.665l1.016,3.018h0.014l0.987-3.018h0.623l-1.323,3.619H28.761z"/>
	<path fill="#FFFFFF" d="M33.828,23.831c-0.271,0.206-0.611,0.309-1.021,0.309c-0.29,0-0.54-0.047-0.753-0.141
		c-0.212-0.093-0.391-0.224-0.535-0.392s-0.253-0.368-0.326-0.602c-0.072-0.233-0.112-0.488-0.122-0.764
		c0-0.275,0.042-0.527,0.126-0.756s0.202-0.427,0.354-0.595s0.331-0.299,0.539-0.392s0.436-0.14,0.683-0.14
		c0.322,0,0.589,0.066,0.802,0.2c0.212,0.133,0.382,0.302,0.511,0.507c0.128,0.205,0.217,0.43,0.266,0.672
		c0.049,0.243,0.069,0.474,0.06,0.693H31.7c-0.005,0.158,0.015,0.309,0.057,0.451s0.109,0.269,0.202,0.378
		c0.094,0.11,0.213,0.197,0.357,0.263s0.315,0.098,0.511,0.098c0.252,0,0.459-0.058,0.62-0.175c0.16-0.116,0.267-0.294,0.318-0.532
		h0.588C34.274,23.32,34.099,23.626,33.828,23.831z M33.685,21.508c-0.054-0.126-0.126-0.234-0.217-0.326
		c-0.091-0.091-0.198-0.163-0.322-0.217c-0.123-0.053-0.26-0.081-0.409-0.081c-0.154,0-0.293,0.027-0.416,0.081
		c-0.124,0.054-0.23,0.127-0.319,0.221c-0.088,0.094-0.158,0.202-0.21,0.325c-0.051,0.124-0.081,0.256-0.091,0.396h2.079
		C33.77,21.767,33.738,21.634,33.685,21.508z"/>
</g>
<g>
	<path fill="#FFFFFF" d="M15.853,28.944h0.995c0.146,0,0.249-0.104,0.249-0.249c0-0.124-0.104-0.248-0.249-0.248h-0.995
		c-0.145,0-0.248,0.124-0.248,0.248C15.605,28.841,15.708,28.944,15.853,28.944z"/>
	<path fill="#FFFFFF" d="M13.871,28.944h0.994c0.146,0,0.249-0.104,0.249-0.249c0-0.124-0.104-0.248-0.249-0.248h-0.994
		c-0.145,0-0.249,0.124-0.249,0.248C13.622,28.841,13.726,28.944,13.871,28.944z"/>
	<path fill="#FFFFFF" d="M13.13,28.695c0-0.124-0.104-0.248-0.249-0.248h-0.994c-0.145,0-0.249,0.124-0.249,0.248
		c0,0.146,0.104,0.249,0.249,0.249h0.994C13.027,28.944,13.13,28.841,13.13,28.695z"/>
	<path fill="#FFFFFF" d="M27.848,28.447h-0.994c-0.145,0-0.248,0.124-0.248,0.248c0,0.146,0.104,0.249,0.248,0.249h0.994
		c0.146,0,0.25-0.104,0.25-0.249C28.098,28.571,27.994,28.447,27.848,28.447z"/>
	<path fill="#FFFFFF" d="M25.865,28.447h-0.994c-0.145,0-0.25,0.124-0.25,0.248c0,0.146,0.105,0.249,0.25,0.249h0.994
		c0.145,0,0.248-0.104,0.248-0.249C26.113,28.571,26.01,28.447,25.865,28.447z"/>
	<path fill="#FFFFFF" d="M22.887,28.944h0.994c0.146,0,0.25-0.104,0.25-0.249c0-0.124-0.104-0.248-0.25-0.248h-0.994
		c-0.145,0-0.248,0.124-0.248,0.248C22.639,28.841,22.742,28.944,22.887,28.944z"/>
	<path fill="#FFFFFF" d="M23.129,30.012c-0.229,0-0.436,0.041-0.643,0.103c-0.041-0.021-0.104-0.041-0.166-0.062
		c-0.289-0.166-0.559-0.353-0.662-0.456c-0.229-0.249-0.27-0.455-0.291-0.58v-0.072h0.514c0.146,0,0.25-0.104,0.25-0.249
		c0-0.124-0.104-0.248-0.25-0.248h-3.994c-0.145,0-0.248,0.124-0.248,0.248c0,0.146,0.104,0.249,0.248,0.249h0.772l-5.724,3.927
		c0,0,3.066-0.477,6.734-2.715c0,0,1.285,0.124,1.41,1.16c-0.125,0.29-0.207,0.601-0.207,0.953c0,1.223,1.014,2.238,2.258,2.238
		c1.223,0,2.238-1.016,2.238-2.238C25.367,31.026,24.352,30.012,23.129,30.012z M19.938,29.411c-0.244,0-0.448-0.204-0.454-0.467
		h0.909C20.387,29.207,20.182,29.411,19.938,29.411z M23.129,33.803c-0.85,0-1.533-0.705-1.533-1.533
		c0-0.85,0.684-1.533,1.533-1.533s1.533,0.684,1.533,1.533C24.662,33.098,23.979,33.803,23.129,33.803z"/>
</g>
</svg>
