<?xml version="1.0" encoding="utf-8"?>
<!-- Generator: Adobe Illustrator 16.0.0, SVG Export Plug-In . SVG Version: 6.00 Build 0)  -->
<!DOCTYPE svg PUBLIC "-//W3C//DTD SVG 1.1//EN" "http://www.w3.org/Graphics/SVG/1.1/DTD/svg11.dtd">
<svg version="1.1" id="Layer_1" xmlns="http://www.w3.org/2000/svg" xmlns:xlink="http://www.w3.org/1999/xlink" x="0px" y="0px"
	 width="22.044px" height="22.044px" viewBox="0 0 22.044 22.044" enable-background="new 0 0 22.044 22.044" xml:space="preserve">
<g>
	<path fill-rule="evenodd" clip-rule="evenodd" fill="#333333" d="M0.069,7.951c0,4.353,3.529,7.881,7.881,7.881
		c1.482,0,2.864-0.417,4.048-1.129l1.205,1.204l5.608,5.61c0.498,0.495,1.306,0.495,1.804,0l0.902-0.902
		c0.495-0.498,0.495-1.306,0-1.804l-5.61-5.608l-1.204-1.205c0.712-1.184,1.129-2.566,1.129-4.048c0-4.353-3.528-7.881-7.881-7.881
		C3.598,0.069,0.069,3.598,0.069,7.951z M2.494,7.951c0-3.014,2.443-5.457,5.457-5.457c3.013,0,5.456,2.443,5.456,5.457
		c0,3.013-2.443,5.456-5.456,5.456C4.937,13.407,2.494,10.964,2.494,7.951z"/>
</g>
</svg>
