<?xml version="1.0" encoding="utf-8"?>
<!-- Generator: Adobe Illustrator 16.0.0, SVG Export Plug-In . SVG Version: 6.00 Build 0)  -->
<!DOCTYPE svg PUBLIC "-//W3C//DTD SVG 1.1//EN" "http://www.w3.org/Graphics/SVG/1.1/DTD/svg11.dtd">
<svg version="1.1" id="Layer_1" xmlns="http://www.w3.org/2000/svg" xmlns:xlink="http://www.w3.org/1999/xlink" x="0px" y="0px"
	 width="23px" height="19px" viewBox="0 0 23 19" enable-background="new 0 0 23 19" xml:space="preserve">
<path fill-rule="evenodd" clip-rule="evenodd" fill="#FFFFFF" d="M14.886,14.297c-0.984-0.878-2.072-2.09-4.686-2.605
	c0.687-0.778,1.185-2.036,1.709-3.492c0.316-0.86,0.263-1.583,0.263-2.597c0-0.76,0.117-1.981-0.045-2.66
	c-0.562-2.229-2.004-2.864-3.709-2.882C6.713,0.078,5.271,0.713,4.709,2.942c-0.162,0.679-0.045,1.9-0.045,2.66
	c0,1.014-0.054,1.736,0.263,2.597c0.524,1.456,1.021,2.714,1.709,3.492c-2.614,0.516-3.701,1.728-4.686,2.605
	c-2.956,2.635-0.694,4.758,1.157,4.758h5.311h5.311C15.58,19.055,17.842,16.932,14.886,14.297z"/>
<path fill-rule="evenodd" clip-rule="evenodd" fill="#FFFFFF" d="M21.643,13.194c-0.755-0.674-1.589-1.604-3.594-2
	c0.526-0.597,0.907-1.562,1.311-2.679c0.243-0.66,0.201-1.215,0.201-1.992c0-0.584,0.091-1.521-0.034-2.041
	c-0.431-1.712-1.537-2.198-2.846-2.212c-1.309,0.014-2.414,0.5-2.846,2.212c-0.124,0.521-0.034,1.457-0.034,2.041
	c0,0.777-0.042,1.332,0.201,1.992c0.403,1.117,0.785,2.082,1.312,2.679c-0.679,0.135-1.216,0.332-1.668,0.558
	c1.559,0.603,2.397,1.483,3.162,2.165c1.241,1.107,1.556,2.121,1.374,2.928h2.573C22.176,16.845,23.911,15.215,21.643,13.194z"/>
</svg>
