<?xml version="1.0" encoding="utf-8"?>
<!-- Generator: Adobe Illustrator 16.0.4, SVG Export Plug-In . SVG Version: 6.00 Build 0)  -->
<!DOCTYPE svg PUBLIC "-//W3C//DTD SVG 1.1//EN" "http://www.w3.org/Graphics/SVG/1.1/DTD/svg11.dtd">
<svg version="1.1" id="Layer_1" xmlns="http://www.w3.org/2000/svg" xmlns:xlink="http://www.w3.org/1999/xlink" x="0px" y="0px"
	 width="196px" height="196px" viewBox="0 0 196 196" enable-background="new 0 0 196 196" xml:space="preserve">
<g>
	<path fill="#1B9E1B" d="M144.246,65.964L72.45,137.747l-22.461-22.458c-1.537-1.536-4.029-1.536-5.564,0
		c-1.538,1.537-1.538,4.029,0,5.566l24.906,24.902c0.599,0.599,1.345,0.956,2.122,1.088c1.358,0.434,2.901,0.129,3.979-0.948
		l74.381-74.37c1.536-1.537,1.536-4.027,0-5.564C148.274,64.426,145.782,64.426,144.246,65.964z"/>
	<path fill="#1B9E1B" d="M98.097,0.194c-54.07,0-97.903,43.828-97.903,97.902C0.194,152.167,44.026,196,98.097,196
		C152.171,196,196,152.167,196,98.096C196,44.021,152.171,0.194,98.097,0.194z M98.097,192.084
		c-51.824,0-93.987-42.163-93.987-93.988c0-51.824,42.163-93.985,93.987-93.985c51.825,0,93.987,42.161,93.987,93.985
		C192.084,149.921,149.922,192.084,98.097,192.084z"/>
</g>
</svg>
