<?xml version="1.0" encoding="utf-8"?>
<!-- Generator: Adobe Illustrator 16.0.4, SVG Export Plug-In . SVG Version: 6.00 Build 0)  -->
<!DOCTYPE svg PUBLIC "-//W3C//DTD SVG 1.1 Tiny//EN" "http://www.w3.org/Graphics/SVG/1.1/DTD/svg11-tiny.dtd">
<svg version="1.1" baseProfile="tiny" id="Layer_1" xmlns="http://www.w3.org/2000/svg" xmlns:xlink="http://www.w3.org/1999/xlink"
	 x="0px" y="0px" width="12px" height="20.517px" viewBox="0 0 12 20.517" overflow="visible" xml:space="preserve">
<path fill="#FFFFFF" d="M6.236,0.171c-0.027-0.229-0.404-0.229-0.433,0C4.863,7.747,0.051,9.309,0.051,14.572
	c0,3.254,2.732,5.893,5.969,5.893s5.969-2.639,5.969-5.893C11.989,9.309,7.178,7.747,6.236,0.171z M5.327,8.546
	C5.264,8.779,5.196,9.02,5.126,9.268c-0.427,1.518-0.912,3.239-0.912,5.229c0,1.079-0.637,1.462-1.233,1.462
	c-0.68,0-1.232-0.558-1.232-1.241c0-2.353,1.133-3.89,2.132-5.246c0.313-0.425,0.608-0.826,0.85-1.226
	c0.11-0.183,0.405-0.175,0.541,0.006C5.333,8.338,5.354,8.445,5.327,8.546z"/>
</svg>
