<?xml version="1.0" encoding="utf-8"?>
<!-- Generator: Adobe Illustrator 16.0.0, SVG Export Plug-In . SVG Version: 6.00 Build 0)  -->
<!DOCTYPE svg PUBLIC "-//W3C//DTD SVG 1.1//EN" "http://www.w3.org/Graphics/SVG/1.1/DTD/svg11.dtd">
<svg version="1.1" id="Layer_1" xmlns="http://www.w3.org/2000/svg" xmlns:xlink="http://www.w3.org/1999/xlink" x="0px" y="0px"
	 width="2098.803px" height="571.625px" viewBox="0 0 2098.803 571.625" enable-background="new 0 0 2098.803 571.625"
	 xml:space="preserve">
<g>
	<g>
		<path fill="#E50914" d="M1619.18,512.124c29.299,2.242,58.555,4.648,87.773,7.249V4.049h-87.773V512.124z M207.213,320.927
			L92.897,4.049H9.48V564c29.201-4.156,58.458-8.137,87.771-11.955v-304.5l101.647,291.998c31.97-3.708,63.998-7.22,96.087-10.521
			V4.049h-87.772V320.927z M379.388,520.862c80.896-7.352,162.167-13.409,243.806-18.112v-86.493
			c-52.162,3.016-104.174,6.584-156.035,10.663V295.987c34.028-0.34,78.835-1.377,118.531-0.885v-86.489
			c-31.713-0.076-82.683,0.443-118.531,0.902V91.314h156.035V4.054H379.388V520.862z M679.46,91.309h91.863v404.417
			c29.207-1.102,58.474-2.011,87.771-2.777V91.309h91.859V4.049H679.46V91.309z M1007.225,490.585l87.773-0.02V290.891h118.979
			v-86.482h-118.979V91.314h157.251V4.054h-245.024V490.585z M2093.803,4.049h-96.406l-63.557,147.306L1876.736,4.049h-94.959
			l102.047,263.216L1772.42,525.489c30.82,3.006,61.559,6.213,92.256,9.603l64.789-150.14l64.166,165.507
			c33.422,4.298,66.764,8.781,100.037,13.53l0.135-0.057l-114.338-294.89L2093.803,4.049z M1396.279,4h-87.77v490.874
			c79.768,2.745,159.201,6.77,238.309,12.043v-86.482c-50.039-3.338-100.221-6.168-150.539-8.509V4z"/>
	</g>
</g>
</svg>
