<?xml version="1.0" encoding="utf-8"?>
<!-- Generator: Adobe Illustrator 16.0.0, SVG Export Plug-In . SVG Version: 6.00 Build 0)  -->
<!DOCTYPE svg PUBLIC "-//W3C//DTD SVG 1.1//EN" "http://www.w3.org/Graphics/SVG/1.1/DTD/svg11.dtd">
<svg version="1.1" id="Layer_1" xmlns="http://www.w3.org/2000/svg" xmlns:xlink="http://www.w3.org/1999/xlink" x="0px" y="0px"
	 width="104.156px" height="28px" viewBox="0 0 104.156 28" enable-background="new 0 0 104.156 28" xml:space="preserve">
<g>
	<g>
		<path fill="#E50914" d="M80.438,25.392c1.466,0.111,2.927,0.232,4.386,0.361V0.002h-4.386V25.392z M9.881,15.837L4.168,0.002H0
			v27.98c1.459-0.207,2.92-0.406,4.386-0.597V12.17l5.08,14.592c1.597-0.186,3.198-0.361,4.801-0.526V0.002H9.881V15.837z
			 M18.485,25.828c4.042-0.367,8.104-0.67,12.182-0.905v-4.322c-2.606,0.15-5.206,0.329-7.797,0.534V14.59
			c1.701-0.016,3.94-0.069,5.924-0.043v-4.322c-1.585-0.004-4.132,0.021-5.924,0.044V4.363h7.797V0.002H18.485V25.828z M33.48,4.363
			h4.589v20.209c1.46-0.056,2.923-0.102,4.387-0.14V4.363h4.59V0.002H33.48V4.363z M49.858,24.314l4.387-0.001v-9.978h5.945v-4.32
			h-5.945V4.363h7.857V0.002H49.858V24.314z M104.156,0.002h-4.818l-3.175,7.361L93.31,0.002h-4.746l5.101,13.153l-5.567,12.904
			c1.541,0.151,3.076,0.312,4.609,0.481l3.237-7.505l3.206,8.271c1.67,0.214,3.338,0.438,5,0.676l0.007-0.004l-5.714-14.735
			L104.156,0.002z M69.301,0h-4.385v24.53c3.983,0.137,7.954,0.337,11.906,0.601V20.81c-2.5-0.167-5.009-0.309-7.521-0.425V0z"/>
	</g>
</g>
</svg>
