<?xml version="1.0" encoding="utf-8"?>
<!-- Generator: Adobe Illustrator 16.0.4, SVG Export Plug-In . SVG Version: 6.00 Build 0)  -->
<!DOCTYPE svg PUBLIC "-//W3C//DTD SVG 1.1//EN" "http://www.w3.org/Graphics/SVG/1.1/DTD/svg11.dtd">
<svg version="1.1" id="Layer_1" xmlns="http://www.w3.org/2000/svg" xmlns:xlink="http://www.w3.org/1999/xlink" x="0px" y="0px"
	 width="96.857px" height="23.5px" viewBox="0 0 96.857 23.5" enable-background="new 0 0 96.857 23.5" xml:space="preserve">
<g>
	<g>
		<g>
			<path fill="#009CDE" d="M74.592,5.255h-5.326c-0.363,0-0.675,0.265-0.731,0.625L66.38,19.536
				c-0.042,0.269,0.166,0.513,0.438,0.513h2.733c0.254,0,0.472-0.186,0.512-0.438l0.611-3.871c0.057-0.358,0.365-0.625,0.731-0.625
				h1.685c3.507,0,5.532-1.697,6.062-5.062c0.237-1.472,0.009-2.628-0.68-3.438C77.715,5.726,76.373,5.255,74.592,5.255z
				 M75.206,10.243c-0.291,1.912-1.752,1.912-3.164,1.912h-0.804l0.564-3.569c0.034-0.216,0.22-0.375,0.438-0.375h0.367
				c0.963,0,1.87,0,2.338,0.548C75.227,9.086,75.311,9.572,75.206,10.243z"/>
			<path fill="#003087" d="M36.606,5.255h-5.327c-0.364,0-0.673,0.265-0.73,0.625l-2.153,13.656
				c-0.042,0.269,0.166,0.513,0.438,0.513h2.543c0.364,0,0.674-0.264,0.731-0.624l0.581-3.685c0.057-0.358,0.367-0.625,0.731-0.625
				h1.686c3.508,0,5.532-1.697,6.061-5.062c0.238-1.472,0.009-2.628-0.679-3.438C39.729,5.726,38.387,5.255,36.606,5.255z
				 M37.219,10.243c-0.291,1.912-1.751,1.912-3.163,1.912h-0.803l0.563-3.569c0.034-0.216,0.22-0.375,0.438-0.375h0.369
				c0.961,0,1.869,0,2.337,0.548C37.241,9.086,37.326,9.572,37.219,10.243z"/>
			<path fill="#003087" d="M52.523,10.181h-2.55c-0.219,0-0.404,0.16-0.438,0.375l-0.113,0.713l-0.178-0.258
				c-0.553-0.802-1.783-1.07-3.012-1.07c-2.817,0-5.225,2.135-5.693,5.13c-0.244,1.493,0.102,2.921,0.949,3.918
				c0.778,0.915,1.889,1.296,3.211,1.296c2.271,0,3.531-1.458,3.531-1.458l-0.114,0.708c-0.042,0.27,0.166,0.514,0.438,0.514h2.297
				c0.364,0,0.675-0.264,0.731-0.624l1.378-8.73C53.004,10.426,52.797,10.181,52.523,10.181z M48.97,15.146
				c-0.247,1.457-1.404,2.435-2.88,2.435c-0.739,0-1.331-0.237-1.712-0.688c-0.376-0.447-0.519-1.083-0.399-1.791
				c0.23-1.444,1.405-2.455,2.858-2.455c0.724,0,1.312,0.24,1.7,0.696C48.928,13.8,49.082,14.439,48.97,15.146z"/>
			<path fill="#009CDE" d="M90.509,10.181h-2.55c-0.219,0-0.404,0.16-0.438,0.375l-0.113,0.713l-0.179-0.258
				c-0.553-0.802-1.783-1.07-3.013-1.07c-2.816,0-5.223,2.135-5.691,5.13c-0.243,1.493,0.103,2.921,0.949,3.918
				c0.778,0.915,1.889,1.296,3.212,1.296c2.271,0,3.531-1.458,3.531-1.458l-0.114,0.708c-0.043,0.27,0.166,0.514,0.438,0.514h2.298
				c0.363,0,0.673-0.264,0.73-0.624l1.379-8.73C90.991,10.426,90.782,10.181,90.509,10.181z M86.954,15.146
				c-0.245,1.457-1.402,2.435-2.878,2.435c-0.738,0-1.332-0.237-1.711-0.688c-0.378-0.447-0.52-1.083-0.401-1.791
				c0.229-1.444,1.405-2.455,2.859-2.455c0.724,0,1.312,0.24,1.698,0.696C86.914,13.8,87.067,14.439,86.954,15.146z"/>
			<path fill="#003087" d="M66.106,10.181h-2.563c-0.244,0-0.474,0.122-0.611,0.325l-3.537,5.208l-1.497-5.004
				c-0.094-0.313-0.384-0.529-0.71-0.529h-2.521c-0.304,0-0.517,0.299-0.42,0.588l2.823,8.284l-2.655,3.745
				c-0.209,0.295,0.002,0.701,0.362,0.701h2.562c0.242,0,0.47-0.118,0.607-0.318l8.525-12.303
				C66.675,10.584,66.465,10.181,66.106,10.181z"/>
			<path fill="#009CDE" d="M93.514,5.63L91.33,19.536c-0.044,0.269,0.166,0.513,0.438,0.513h2.199c0.363,0,0.673-0.264,0.73-0.624
				l2.154-13.657c0.043-0.269-0.166-0.513-0.438-0.513h-2.46C93.735,5.255,93.55,5.414,93.514,5.63z"/>
		</g>
	</g>
	<g>
		<path fill="#009CDE" d="M17.948,5.97c0.287-1.828-0.002-3.072-0.991-4.198C15.868,0.532,13.901,0,11.385,0H4.081
			C3.567,0,3.129,0.375,3.049,0.882L0.008,20.168c-0.06,0.381,0.234,0.724,0.62,0.724h4.508l-0.311,1.976
			C4.772,23.199,5.03,23.5,5.366,23.5h3.801c0.45,0,0.833-0.326,0.903-0.771l0.038-0.193l0.715-4.54l0.046-0.251
			c0.071-0.444,0.454-0.771,0.904-0.771h0.568c3.682,0,6.564-1.496,7.407-5.823c0.352-1.808,0.169-3.316-0.761-4.377
			C18.706,6.452,18.356,6.187,17.948,5.97L17.948,5.97"/>
		<path fill="#012169" d="M17.948,5.97c0.287-1.828-0.002-3.072-0.991-4.198C15.868,0.532,13.901,0,11.385,0H4.081
			C3.567,0,3.129,0.375,3.049,0.882L0.008,20.168c-0.06,0.381,0.234,0.724,0.62,0.724h4.508l1.133-7.181l-0.035,0.224
			c0.08-0.507,0.514-0.881,1.028-0.881h2.143c4.209,0,7.504-1.71,8.468-6.655C17.902,6.251,17.926,6.11,17.948,5.97"/>
		<path fill="#003087" d="M7.486,5.995C7.534,5.689,7.73,5.439,7.994,5.312c0.12-0.057,0.254-0.089,0.394-0.089h5.726
			c0.678,0,1.31,0.044,1.888,0.137c0.166,0.027,0.327,0.057,0.483,0.092c0.156,0.034,0.308,0.073,0.454,0.116
			c0.073,0.021,0.146,0.044,0.217,0.067c0.283,0.094,0.548,0.205,0.792,0.334c0.287-1.828-0.002-3.072-0.991-4.198
			C15.868,0.532,13.901,0,11.385,0H4.081C3.567,0,3.129,0.375,3.049,0.882L0.008,20.168c-0.06,0.381,0.234,0.724,0.62,0.724h4.508
			l1.133-7.181L7.486,5.995z"/>
	</g>
</g>
</svg>
