<?xml version="1.0" encoding="utf-8"?>
<!-- Generator: Adobe Illustrator 16.0.4, SVG Export Plug-In . SVG Version: 6.00 Build 0)  -->
<!DOCTYPE svg PUBLIC "-//W3C//DTD SVG 1.1//EN" "http://www.w3.org/Graphics/SVG/1.1/DTD/svg11.dtd">
<svg version="1.1" id="Layer_1" xmlns="http://www.w3.org/2000/svg" xmlns:xlink="http://www.w3.org/1999/xlink" x="0px" y="0px"
	 width="197.334px" height="179.667px" viewBox="0 0 197.334 179.667" enable-background="new 0 0 197.334 179.667"
	 xml:space="preserve">
<rect fill-rule="evenodd" clip-rule="evenodd" fill="#60A3CD" width="197.334" height="179.667"/>
<path fill="#294651" d="M175.456,180.667H98.667H21.88c-0.493,0-0.822-0.494-0.822-0.986v-6.084c0-4.111,2.137-7.729,5.755-9.537
	l48.507-24.664c2.137-1.15,3.452-2.96,3.781-5.262l1.644-10.523h0.165c-3.946-3.617-7.07-8.55-9.208-14.141l-4.111-2.138
	c-0.986-0.493-1.644-1.479-1.809-2.467l-2.467-14.799v-0.164c0-0.329,0-0.658,0-0.987c0-2.467,1.646-4.603,4.11-5.098
	c-0.821-5.096-1.972-13.975-1.807-18.086c0.821-15.457,7.562-27.789,32.556-36.339c1.316,4.604,5.098,9.373,10.688,12.167
	c16.936,8.88,21.211,11.346,22.196,24.665c0,3.946-0.985,12.661-1.478,17.593c2.302,0.495,4.274,2.467,4.274,5.098
	c0,0.33-0.165,0.658-0.165,0.987v0.164l-2.467,14.799c-0.165,0.987-0.821,1.974-1.808,2.467l-3.782,1.974
	c-2.139,5.755-5.262,10.688-9.209,14.305l1.646,10.523c0.493,2.302,1.808,4.111,3.782,5.262l48.671,24.664
	c3.452,1.809,5.754,5.426,5.754,9.537v6.084C176.277,180.173,175.784,180.667,175.456,180.667z"/>
</svg>
