<?xml version="1.0" encoding="utf-8"?>
<!-- Generator: Adobe Illustrator 16.0.4, SVG Export Plug-In . SVG Version: 6.00 Build 0)  -->
<!DOCTYPE svg PUBLIC "-//W3C//DTD SVG 1.1//EN" "http://www.w3.org/Graphics/SVG/1.1/DTD/svg11.dtd">
<svg version="1.1" id="Layer_1" xmlns="http://www.w3.org/2000/svg" xmlns:xlink="http://www.w3.org/1999/xlink" x="0px" y="0px"
	 width="140px" height="35px" viewBox="0 0 140 35" enable-background="new 0 0 140 35" xml:space="preserve">
<g>
	<g>
		<path fill="#FDFDFE" d="M16.238,24.697c6.902,1.274,11.955-5.413,15.192-11.199c1.295-2.319,3.263-8.39,1.06-10.684
			c-2.018-2.218-3.577,0.694-4.773,1.666l0.922,1.092c1.845,2.33,0.24,6.752-0.852,9.117c-1.642,2.911-4.739,7.314-8.356,6.7
			c-0.787-0.184-1.437-0.945-1.711-1.746c1.949-1.929,4.258-5.317,5.555-7.571c1.085-1.835,2.969-5.376,1.231-6.837
			c-1.443-1-4.33,0.44-5.878,1.746c-0.942,0.848-1.576,1.542-2.309,2.532c-1.992,2.7-3.888,7.329-3.689,10.893
			c-0.957,0.692-2.049,1.383-3.347,0.984c-1.287-0.286-1.518-1.383-1.701-2.241c-0.819-5.164,4.356-11.685,7.259-15.43
			c0,0-2.291,0.621-3.962,0.69C7.037,4.573,4.182,2.785,2.104,5.355C1.479,6.268,1.117,7.23,1,8.371
			c0.851-0.728,2.114-0.553,3.32-0.483C6.405,8.07,7.433,8.321,9.313,7.816c-1.675,2.362-4.466,7.021-4.979,9.929
			c-0.271,1.927-0.248,4.969,1.401,6.333c2.733,1.818,5.447,0.549,7.871-1.126C14.326,23.786,15.214,24.516,16.238,24.697z
			 M20.874,8.564c0.728-0.356,0.508,0.725,0.508,0.725c-0.104,1.224-0.992,2.683-1.625,3.802c-0.65,1.146-2.927,3.844-3.919,4.425
			c0.043-1.633,1.792-5.2,2.686-6.561C18.98,10.156,20.148,8.919,20.874,8.564z"/>
	</g>
	<g>
		<path fill="#FDFDFE" d="M130.816,11.757L130.816,11.757c-0.379,0.5-1.674,1.909-2.095,2.35c-0.021,0.017-0.215,0.206-0.215,0.206
			c-3.497,3.508-6.169,5.543-7.717,5.87c-1.055,0.232-1.539,0.294-2.03-0.657c-0.009-0.02-0.021-0.053-0.021-0.053
			c0-0.007-0.054-0.445-0.054-0.445c0-1.266,1.646-4.099,3.84-5.996c0.843-0.733,0.939-1.057,0.952-1.137
			c-0.312-0.493-0.505-0.724-0.932-0.901c-0.611-0.032-1.547,0.617-2.165,1.049c-0.437,0.298-1.677,1.439-2.993,2.642
			c-1.096,1.004-2.228,2.045-2.858,2.565c0,0-0.883,0.72-1.072,0.879c0.009-0.186,0.031-0.558,0.031-0.558
			c0.022-0.652,0.709-1.738,1.688-3.204c0.354-0.539,1.232-2.068,1.336-2.34l0.015-0.025l-0.016-0.027
			c-0.286-0.466-0.829-0.829-1.265-0.851c-0.045,0.019-0.39,0.301-0.39,0.301c-0.738,0.602-2.314,2.023-3.836,3.399
			c-1.399,1.266-2.719,2.455-3.047,2.693c-2.564,1.906-4.791,3.148-6.984,3.922c-0.394,0.112-1.735,0.435-2.397-0.312
			c0,0-0.151-0.168-0.229-0.265c0.098-0.045,0.314-0.137,0.314-0.137c1.918-0.816,4.335-1.94,6.089-3.441
			c0.024-0.024,2.688-2.308,2.688-4.561c0-0.099-0.008-0.194-0.013-0.292c-0.167-0.81-0.86-1.056-1.844-1.183
			c-3.225,0.02-6.121,2.004-7.627,3.696l-0.265,0.289c-0.698,0.76-2.819,3.066-3.681,5.114c0,0-0.039,0.092-0.051,0.109
			c-0.006-0.006-0.079,0.026-0.079,0.026c-1.454,0.613-3.033,1.203-4.789,1.389c-0.945,0.118-2.289,0.198-3.04-0.488
			c0,0-0.186-0.162-0.266-0.238c0.147-0.079,3.666-1.96,3.666-1.96c2.899-1.761,4.843-4.44,4.843-5.837l0,0
			c-0.062-1.62-1.575-1.986-2.838-2.004c-1.877,0.011-3.609,0.703-5.795,2.312c-1.266,0.936-3.918,3.964-4.627,7.074
			c0,0-0.019,0.103-0.032,0.147c-0.059,0.018-0.276,0.068-0.276,0.068c-1.388,0.346-3.721,0.911-4.151-0.442
			c-0.691-2.204,1.517-4.323,3.282-6.025c0-0.001,0.997-0.977,0.997-0.977c0.139-0.156,0.309-0.519,0.26-0.807
			c-0.018-0.136-0.086-0.238-0.208-0.311c-0.946-0.417-1.855-0.095-2.814,0.249c-0.723,0.254-1.471,0.516-2.261,0.459
			c0,0-0.155-0.018-0.248-0.025c0.009-0.083,0.021-0.253,0.021-0.253c0.043-0.465,0.312-0.743,0.556-0.988
			c0.005-0.001,0.077-0.083,0.077-0.083c0.043-0.049,0.065-0.146,0.065-0.256c0-0.098-0.017-0.208-0.061-0.303
			c-0.062-0.148-0.157-0.237-0.274-0.246c-0.553-0.069-1.51,0.479-2.38,1.355c-0.834,0.85-1.357,1.767-1.357,2.396l0.007,0.129
			c0.006,0.017,0.004,0.052,0.004,0.052c-0.104,1.428-1.346,2.796-3.072,4.694l-0.75,0.826c0.003,0-0.287,0.298-0.287,0.298
			c-1.037,1.057-1.69,1.848-1.894,2.285l-0.059,0.127l0.141-0.038c0.733-0.221,2.843-1.24,6.62-5.993c0,0,0.054-0.067,0.079-0.11
			c0.049,0.006,0.141,0.021,0.141,0.021c0.177,0.022,0.393-0.069,0.621-0.158c0.385-0.154,0.824-0.324,1.239-0.05
			c0,0,0.16,0.103,0.229,0.152c-0.072,0.088-0.741,0.942-0.741,0.942c-1.053,1.323-2.136,2.676-2.136,4.303
			c0,0.312,0.039,0.633,0.131,0.967c0.199,0.952,1.175,1.403,1.952,1.503c1.567,0.271,3.534-0.595,5.271-1.358l0.881-0.384
			c0.491-0.135,0.632,0.166,0.734,0.381c0.121,0.26,0.294,0.627,1.052,0.956c2.535,1.147,6.255,0.581,11.062-1.685
			c0,0,0.144-0.068,0.232-0.111c0.036,0.085,0.099,0.253,0.099,0.253c0.347,0.93,0.998,1.505,2.062,1.813
			c4.14,0.551,7.552-1.817,10.852-4.106c0.004-0.001,1.506-1.145,1.753-1.334c0.061,0.062,0.33,0.354,0.369,0.401
			c-0.057,0.08-1.453,2.043-1.453,2.043c-0.488,0.714-0.941,1.385-1.228,2.137c0-0.005-0.085,0.317-0.085,0.317l0.037,0.165
			c0.072,0.128,0.249,0.217,0.508,0.254c2.512-0.347,4.933-2.398,6.53-3.75l0.478-0.405c0.688-0.599,1.345-1.158,1.606-1.217
			c0,0,0.099-0.029,0.149-0.041c0.037,0.041,0.116,0.131,0.116,0.131c0.009,0.01,0.009,0.025,0.009,0.039
			c0,0.123-0.187,0.414-0.319,0.616l-0.252,0.406c-0.214,0.449-0.639,1.329-0.639,2.109c0,0.283,0.056,0.56,0.212,0.793
			c0.752,1.164,1.408,1.202,2.117,1.241l0.252,0.013c2.967-0.189,5.876-2.761,8.692-5.253l2.102-1.814c0,0,1.693-1.485,2.035-1.79
			c0.049,0.106,0.119,0.305,0.119,0.305c0.212,0.543,0.257,1.037,0.257,1.354l-0.051,0.589c-0.033,0.262-0.502,2.088-1.141,2.607
			c-0.003,0-0.135,0.074-0.135,0.074c-0.005,0-0.408,0.103-0.408,0.103c-1.551,0.397-3.307,0.843-3.96,2.389
			c-0.003,0.007-0.06,0.353-0.06,0.353c0,0.21,0.079,0.508,0.43,0.742c1.095,0.28,2.229,0.011,3.227-0.229l1.286-0.274
			c1.048,0.005,2.068,0.129,3.055,0.248c1.374,0.162,2.666,0.32,4.037,0.181c1.773-0.464,3.19-2.479,3.628-4.146l0.04-0.137
			l-0.133,0.065c-2.204,1.09-4.748,1.137-6.81,0.127c0,0-0.144-0.07-0.21-0.106c0.029-0.068,0.093-0.228,0.093-0.228
			c0.016-0.031,1.271-3.101,1.271-7.079c0-0.18-0.003-0.365-0.007-0.549h0.007c-0.024-0.096-0.035-0.186-0.035-0.274
			c0-0.366,0.185-0.667,0.354-0.94c0.171-0.272,0.316-0.508,0.316-0.792c0-0.041-0.003-0.082-0.006-0.128
			c-0.008-0.002-0.008-0.015-0.008-0.023c0-0.033,0.011-0.079,0.011-0.079c0.003-0.006,0.003-0.011,0.003-0.018
			c0-0.099-0.155-0.148-0.229-0.169C132.923,8.991,131.942,10.271,130.816,11.757z M85.408,18.619L85.408,18.619
			c0.11-0.94,1.518-2.761,2.27-3.522c0.682-0.688,1.569-1.245,2.43-1.53c0.453-0.108,0.815-0.02,1.006,0.245
			c0.074,0.109,0.115,0.239,0.115,0.376c0,0.169-0.062,0.349-0.171,0.526c-0.94,1.475-3.362,3.552-5.339,4.176
			c0,0-0.23,0.073-0.36,0.12C85.374,18.885,85.408,18.619,85.408,18.619z M98.692,18.263L98.692,18.263
			c0.198-1.405,2.248-3.497,2.27-3.516c0.683-0.687,1.569-1.244,2.433-1.533c0.354-0.153,0.694-0.12,0.904,0.081
			c0.079,0.086,0.189,0.24,0.189,0.496c0,0.146-0.035,0.318-0.125,0.537c-0.218,0.545-1.869,2.146-2.34,2.556
			c-0.523,0.496-1.953,1.489-3.05,1.667c0,0-0.208,0.033-0.333,0.052C98.656,18.494,98.692,18.263,98.692,18.263z"/>
	</g>
	<g>
		<path fill="#FDFDFE" d="M58.404,5.19h-0.003c-2.231,0.206-4.33,1.449-6.808,4.025c-1.012,0.959-5.693,6.78-6.464,11.208
			c0,0-0.013,0.084-0.021,0.12c-0.032,0.016-0.106,0.057-0.106,0.057c-0.678,0.364-2.72,1.241-4.013,0.915
			c-0.388-0.097-0.677-0.297-0.852-0.595c-0.199-0.384-0.294-0.777-0.294-1.193c0-0.965,0.534-1.827,0.995-2.599
			c0.004-0.003,0.247-0.409,0.265-0.437c0.008,0.009,0.087-0.017,0.087-0.017c1.198-0.342,3.073-2.626,3.55-4.022l0.014-0.04
			l-0.036-0.023c-1.396-0.856-3.27-0.835-4.592-0.671c-2.182,0.254-4.664,1.214-6.644,2.564c-2.382,1.627-4.441,4.942-4.873,7.015
			c-0.233,1.184-0.386,2.388,0.434,2.944c1.704,0.99,5.054-0.809,7.341-2.997c0,0,0.3-0.284,0.477-0.455
			c-0.017,0.241-0.074,0.893-0.074,0.893c-0.029,0.284-0.056,0.607-0.056,0.929c0,0.604,0.102,1.213,0.5,1.589
			c1.885,1.496,5.769-0.144,7.911-1.608c0,0,0.125-0.087,0.191-0.129c0.052,0.062,0.146,0.183,0.146,0.183
			c0.681,0.845,1.486,1.75,2.401,1.902c2.393,0.335,4.266-1.044,5.931-2.583c0,0,0.218-0.2,0.326-0.303
			c0.034,0.177,0.162,0.771,0.162,0.771c0.122,0.615,0.234,1.198,0.711,1.583c1.209,0.935,3.917-0.338,5.44-1.419
			c0,0,0.352-0.247,0.554-0.395c-0.051,0.214-0.168,0.657-0.168,0.657c-0.26,1.006-0.741,1.971-1.208,2.903l-0.418,0.854
			l-0.069,0.112l-0.124,0.202c-0.65,1.038-1.854,2.986-3.026,3.155l-0.082,0.013c-0.3-0.11-0.493-0.279-0.594-0.505l-0.086-0.435
			c0-0.526,0.276-1.123,0.518-1.651l0.051-0.104l-0.114,0.007c-0.544,0.084-1.03,0.314-1.565,0.588
			c-1.083,0.641-2.2,2.091-2.2,3.396c0,0.271,0.044,0.526,0.138,0.763c0.224,0.497,0.814,0.513,1.061,0.5
			c7.429-0.694,11.598-9.12,14.642-15.275l0.598-1.215c0.183-0.243,0.214-0.389,0.214-0.475l-0.006-0.073
			c-0.012-0.009-0.114-0.139-0.114-0.139c0.009,0.011-0.074-0.441-0.074-0.441c0.124-0.595,1.564-1.846,1.58-1.86
			c0,0.003,0.182-0.137,0.182-0.137c0.148-0.096,0.24-0.195,0.243-0.273c0-0.086-0.097-0.199-0.243-0.292
			c-0.293-0.189-0.609-0.324-1.815-0.659c-2.232-0.625-6.071-0.156-9.553,3.216c-0.366,0.351-1.038,1.199-1.586,1.881l-0.706,0.876
			c-1.697,1.981-3.445,4.034-6.337,3.461c-0.378-0.158-0.78-0.476-0.933-0.867c-0.083-0.224-0.077-0.448,0.017-0.651l0.036-0.071
			c1.604-1.127,3.251-2.584,4.943-4.355c2.842-3.036,6.323-8.146,5.865-9.415C59.726,5.207,58.711,5.176,58.404,5.19z
			 M34.918,15.168c1.575-0.771,3.543-0.715,5.01,0.142c0,0,0.168,0.097,0.254,0.149c-0.069,0.097-1.082,1.506-1.082,1.506
			c-1.667,2.026-4.881,4.031-6.254,3.906v-0.003c-0.641-0.055-1.088-0.369-1.2-0.847l-0.022-0.403c0-1.369,1.821-3.488,2.777-4.134
			C34.39,15.492,34.918,15.168,34.918,15.168z M53.554,10.268c0.764-0.939,2.018-1.765,2.393-1.94
			c0.288-0.136,0.441,0.025,0.483,0.079c0.063,0.077,0.084,0.182,0.084,0.288c0,0.125-0.038,0.248-0.081,0.3l0.013,0.003
			c-0.667,2.331-4.891,7.275-7.321,9.009c0,0-0.292,0.205-0.466,0.33c0.024-0.186,0.074-0.56,0.074-0.56l0,0
			C48.942,16.118,52.083,12.075,53.554,10.268z M58.305,20.85l-0.04-0.027c-0.657-0.475-0.864-1.144-0.592-1.93
			c0.245-0.915,2.785-3.722,4.793-4.112c1.823-0.353,2.552,0.264,2.904,0.558c0,0.005,0.19,0.155,0.282,0.234
			c-0.078,0.083-0.986,1.058-0.986,1.058C63.328,18.521,59.973,21.624,58.305,20.85z"/>
	</g>
</g>
</svg>
